<svg id="undraw_remotely_-2-j6y" xmlns="http://www.w3.org/2000/svg" width="218.374" height="192.797" viewBox="0 0 218.374 192.797">
  <path id="Path_773" data-name="Path 773" d="M490.946,65.465l.859-1.327a19.882,19.882,0,0,0-.881-2.062l-.555.448.44-.679c-.419-.825-.749-1.344-.749-1.344a19.065,19.065,0,0,0-2.3,5.587l1.1,1.7-1.22-.985a8.042,8.042,0,0,0-.067,1.009c0,3.4,1.111,6.162,2.482,6.162s2.482-2.759,2.482-6.162a10.6,10.6,0,0,0-.568-3.18Z" transform="translate(-406.214 -60.501)" fill="#747474"/>
  <path id="Path_774" data-name="Path 774" d="M504.5,79.9l1.546-.331a19.9,19.9,0,0,0,.835-2.081l-.71-.076.791-.17c.287-.879.421-1.48.421-1.48a19.068,19.068,0,0,0-5.575,2.326l-.425,1.983-.166-1.559a8.056,8.056,0,0,0-.761.666c-2.406,2.406-3.571,5.143-2.6,6.112s3.706-.2,6.112-2.6a10.6,10.6,0,0,0,1.847-2.65Z" transform="translate(-413.694 -71.986)" fill="#747474"/>
  <path id="Path_775" data-name="Path 775" d="M492.626,116.765c-3.584.229-7.489-.013-11.644,0v-9.512a41.967,41.967,0,0,0,11.644,0Z" transform="translate(-401.251 -95.682)" fill="#747474"/>
  <path id="Path_776" data-name="Path 776" d="M624.948,165.808l.56-.865a12.979,12.979,0,0,0-.574-1.345l-.362.292.287-.443c-.273-.538-.488-.877-.488-.877a12.437,12.437,0,0,0-1.5,3.644l.719,1.111-.8-.643a5.286,5.286,0,0,0-.044.658c0,2.219.725,4.018,1.619,4.018s1.619-1.8,1.619-4.018a6.909,6.909,0,0,0-.37-2.074Z" transform="translate(-507.933 -137.309)" fill="#747474"/>
  <path id="Path_777" data-name="Path 777" d="M633.791,175.222l1.008-.216a12.974,12.974,0,0,0,.545-1.357l-.463-.049.516-.111c.187-.574.275-.965.275-.965a12.433,12.433,0,0,0-3.636,1.517l-.277,1.293-.108-1.017a5.251,5.251,0,0,0-.5.435c-1.569,1.569-2.329,3.354-1.7,3.986s2.417-.127,3.986-1.7a6.91,6.91,0,0,0,1.2-1.728Z" transform="translate(-512.812 -144.799)" fill="#747474"/>
  <path id="Path_778" data-name="Path 778" d="M626.044,199.262c-2.337.15-4.884-.009-7.593,0v-6.2a27.368,27.368,0,0,0,7.593,0Z" transform="translate(-504.697 -160.252)" fill="#747474"/>
  <path id="Path_779" data-name="Path 779" d="M622.914,275.745c-2.064.132-4.313-.008-6.7,0v-5.477a24.168,24.168,0,0,0,6.7,0Z" transform="translate(-503.01 -218.352)" fill="#e6e6e6"/>
  <rect id="Rectangle_267" data-name="Rectangle 267" width="90.223" height="2.52" transform="translate(41.457 20.414)" fill="#747474"/>
  <rect id="Rectangle_268" data-name="Rectangle 268" width="90.223" height="2.52" transform="translate(41.457 38.307)" fill="#747474"/>
  <rect id="Rectangle_269" data-name="Rectangle 269" width="90.223" height="2.52" transform="translate(41.457 56.2)" fill="#747474"/>
  <circle id="Ellipse_155" data-name="Ellipse 155" cx="5.04" cy="5.04" r="5.04" transform="translate(111.518 43.851)" fill="#e6e6e6"/>
  <circle id="Ellipse_156" data-name="Ellipse 156" cx="4.032" cy="4.032" r="4.032" transform="translate(112.526 44.859)" fill="#fff"/>
  <circle id="Ellipse_157" data-name="Ellipse 157" cx="1.008" cy="1.008" r="1.008" transform="translate(115.551 47.884)" fill="#e6e6e6"/>
  <rect id="Rectangle_270" data-name="Rectangle 270" width="0.504" height="4.032" transform="translate(120.087 48.64) rotate(90)" fill="#e6e6e6"/>
  <rect id="Rectangle_271" data-name="Rectangle 271" width="0.504" height="4.032" transform="translate(116.811 49.396) rotate(180)" fill="#e6e6e6"/>
  <rect id="Rectangle_272" data-name="Rectangle 272" width="3.335" height="13.201" transform="translate(84.08 26.013)" fill="#747474"/>
  <rect id="Rectangle_273" data-name="Rectangle 273" width="3.335" height="1.529" transform="translate(84.08 28.097)" fill="#ccc"/>
  <rect id="Rectangle_274" data-name="Rectangle 274" width="3.335" height="1.529" transform="translate(84.08 34.767)" fill="#ccc"/>
  <rect id="Rectangle_275" data-name="Rectangle 275" width="3.335" height="13.201" transform="translate(78.938 26.013)" fill="#747474"/>
  <rect id="Rectangle_276" data-name="Rectangle 276" width="3.335" height="1.529" transform="translate(78.938 28.097)" fill="#ccc"/>
  <rect id="Rectangle_277" data-name="Rectangle 277" width="3.335" height="1.529" transform="translate(78.938 34.767)" fill="#ccc"/>
  <rect id="Rectangle_278" data-name="Rectangle 278" width="3.335" height="13.201" transform="matrix(0.896, -0.444, 0.444, 0.896, 87.299, 27.438)" fill="#747474"/>
  <rect id="Rectangle_279" data-name="Rectangle 279" width="3.335" height="1.529" transform="matrix(0.896, -0.444, 0.444, 0.896, 88.224, 29.306)" fill="#ccc"/>
  <rect id="Rectangle_280" data-name="Rectangle 280" width="3.335" height="1.529" transform="matrix(0.896, -0.444, 0.444, 0.896, 91.184, 35.283)" fill="#ccc"/>
  <rect id="Rectangle_281" data-name="Rectangle 281" width="3.335" height="13.201" transform="translate(54.341 43.906)" fill="#747474"/>
  <rect id="Rectangle_282" data-name="Rectangle 282" width="3.335" height="1.529" transform="translate(54.341 45.99)" fill="#ccc"/>
  <rect id="Rectangle_283" data-name="Rectangle 283" width="3.335" height="1.529" transform="translate(54.341 52.66)" fill="#ccc"/>
  <rect id="Rectangle_284" data-name="Rectangle 284" width="3.335" height="13.201" transform="translate(49.2 43.906)" fill="#747474"/>
  <rect id="Rectangle_285" data-name="Rectangle 285" width="3.335" height="1.529" transform="translate(49.2 45.99)" fill="#ccc"/>
  <rect id="Rectangle_286" data-name="Rectangle 286" width="3.335" height="1.529" transform="translate(49.2 52.66)" fill="#ccc"/>
  <rect id="Rectangle_287" data-name="Rectangle 287" width="3.335" height="13.201" transform="matrix(0.896, -0.444, 0.444, 0.896, 57.561, 45.331)" fill="#747474"/>
  <rect id="Rectangle_288" data-name="Rectangle 288" width="3.335" height="1.529" transform="matrix(0.896, -0.444, 0.444, 0.896, 58.486, 47.199)" fill="#ccc"/>
  <rect id="Rectangle_289" data-name="Rectangle 289" width="3.335" height="1.529" transform="matrix(0.896, -0.444, 0.444, 0.896, 61.445, 53.176)" fill="#ccc"/>
  <rect id="Rectangle_290" data-name="Rectangle 290" width="3.335" height="13.201" transform="translate(85.592 43.906)" fill="#747474"/>
  <rect id="Rectangle_291" data-name="Rectangle 291" width="3.335" height="1.529" transform="translate(85.592 45.99)" fill="#ccc"/>
  <rect id="Rectangle_292" data-name="Rectangle 292" width="3.335" height="1.529" transform="translate(85.592 52.66)" fill="#ccc"/>
  <rect id="Rectangle_293" data-name="Rectangle 293" width="3.335" height="13.201" transform="translate(80.45 43.906)" fill="#747474"/>
  <rect id="Rectangle_294" data-name="Rectangle 294" width="3.335" height="1.529" transform="translate(80.45 45.99)" fill="#ccc"/>
  <rect id="Rectangle_295" data-name="Rectangle 295" width="3.335" height="1.529" transform="translate(80.45 52.66)" fill="#ccc"/>
  <rect id="Rectangle_296" data-name="Rectangle 296" width="3.335" height="13.201" transform="matrix(0.896, -0.444, 0.444, 0.896, 88.811, 45.331)" fill="#747474"/>
  <rect id="Rectangle_297" data-name="Rectangle 297" width="3.335" height="1.529" transform="matrix(0.896, -0.444, 0.444, 0.896, 89.736, 47.199)" fill="#ccc"/>
  <rect id="Rectangle_298" data-name="Rectangle 298" width="3.335" height="1.529" transform="matrix(0.896, -0.444, 0.444, 0.896, 92.696, 53.177)" fill="#ccc"/>
  <rect id="Rectangle_299" data-name="Rectangle 299" width="13.255" height="13.255" transform="translate(111.369 8.08)" fill="#747474"/>
  <rect id="Rectangle_300" data-name="Rectangle 300" width="7.953" height="7.953" transform="translate(114.02 10.731)" fill="#ccc"/>
  <path id="Path_780" data-name="Path 780" d="M459.746,54.143l1.686,2.921,1.686,2.921h-6.745l1.686-2.921Z" transform="translate(-343.424 -40.743)" fill="#e6e6e6"/>
  <path id="Path_781" data-name="Path 781" d="M471.585,56.4l1.686,2.921,1.686,2.921h-6.745l1.686-2.921Z" transform="translate(-352.333 -42.44)" fill="#e6e6e6"/>
  <circle id="Ellipse_158" data-name="Ellipse 158" cx="0.977" cy="0.977" r="0.977" transform="translate(119.461 11.149)" fill="#e6e6e6"/>
  <rect id="Rectangle_301" data-name="Rectangle 301" width="13.255" height="13.255" transform="translate(44.332 8.08)" fill="#747474"/>
  <rect id="Rectangle_302" data-name="Rectangle 302" width="7.953" height="7.953" transform="translate(46.983 10.731)" fill="#ccc"/>
  <path id="Path_782" data-name="Path 782" d="M188.882,54.143l1.686,2.921,1.686,2.921h-6.745l1.686-2.921Z" transform="translate(-139.597 -40.743)" fill="#e6e6e6"/>
  <path id="Path_783" data-name="Path 783" d="M200.721,56.4l1.686,2.921,1.686,2.921h-6.745l1.686-2.921Z" transform="translate(-148.506 -42.44)" fill="#e6e6e6"/>
  <circle id="Ellipse_159" data-name="Ellipse 159" cx="0.977" cy="0.977" r="0.977" transform="translate(52.424 11.149)" fill="#e6e6e6"/>
  <path id="Path_784" data-name="Path 784" d="M220.081,443.25l.859-1.327a19.892,19.892,0,0,0-.881-2.062l-.555.448.44-.679c-.419-.825-.749-1.344-.749-1.344a19.067,19.067,0,0,0-2.3,5.587l1.1,1.7-1.22-.985a8.048,8.048,0,0,0-.067,1.009c0,3.4,1.111,6.162,2.482,6.162s2.482-2.759,2.482-6.162a10.6,10.6,0,0,0-.568-3.18Z" transform="translate(-202.386 -344.786)" fill="#f26492"/>
  <path id="Path_785" data-name="Path 785" d="M233.639,457.686l1.546-.331a19.9,19.9,0,0,0,.835-2.081l-.71-.075.791-.17c.287-.879.421-1.48.421-1.48a19.067,19.067,0,0,0-5.575,2.326l-.425,1.983-.166-1.559a8.05,8.05,0,0,0-.761.666c-2.406,2.406-3.571,5.143-2.6,6.112s3.706-.2,6.112-2.6a10.6,10.6,0,0,0,1.847-2.65Z" transform="translate(-209.866 -356.272)" fill="#f26492"/>
  <path id="Path_786" data-name="Path 786" d="M221.761,494.549c-3.584.229-7.489-.013-11.644,0v-9.511a41.967,41.967,0,0,0,11.644,0Z" transform="translate(-197.423 -379.968)" fill="#3f3d56"/>
  <rect id="Rectangle_303" data-name="Rectangle 303" width="48.388" height="62.753" transform="translate(123.993 117.567)" fill="#e6e6e6"/>
  <rect id="Rectangle_304" data-name="Rectangle 304" width="2.52" height="59.477" transform="translate(22.934 120.843)" fill="#747474"/>
  <rect id="Rectangle_305" data-name="Rectangle 305" width="172.381" height="5.04" transform="translate(0 113.283)" fill="#747474"/>
  <rect id="Rectangle_306" data-name="Rectangle 306" width="5.04" height="5.04" transform="translate(21.674 118.323)" fill="#e6e6e6"/>
  <path id="Path_787" data-name="Path 787" d="M535.9,489.8l-.284,1.134h-7.057l-.425-1.134H510.162v11.593h43.851V489.8Z" transform="translate(-383.9 -368.575)" fill="#3f3d56"/>
  <path id="Path_788" data-name="Path 788" d="M535.9,548.857l-.284,1.134h-7.057l-.425-1.134H510.162V560.45h43.851V548.857Z" transform="translate(-383.9 -413.019)" fill="#3f3d56"/>
  <path id="Path_789" data-name="Path 789" d="M535.9,607.918l-.284,1.134h-7.057l-.425-1.134H510.162v11.593h43.851V607.918Z" transform="translate(-383.9 -457.463)" fill="#3f3d56"/>
  <path id="Path_790" data-name="Path 790" d="M535.9,666.979l-.284,1.134h-7.057l-.425-1.134H510.162v11.593h43.851V666.979Z" transform="translate(-383.9 -501.906)" fill="#3f3d56"/>
  <path id="Path_791" data-name="Path 791" d="M332.575,434.742H317.706l.5-6.552h13.861Z" transform="translate(-239.076 -322.216)" fill="#e6e6e6"/>
  <rect id="Rectangle_307" data-name="Rectangle 307" width="16.633" height="1.512" transform="translate(77.874 111.771)" fill="#e6e6e6"/>
  <path id="Path_792" data-name="Path 792" d="M444.248,318.128h-56.83a1.512,1.512,0,0,0-1.512,1.512v34.653H445.76V319.64a1.512,1.512,0,0,0-1.512-1.512Z" transform="translate(-329.705 -254.367)" fill="#3f3d56"/>
  <path id="Path_793" data-name="Path 793" d="M385.9,464.252v5.67a1.512,1.512,0,0,0,1.512,1.512h56.83a1.512,1.512,0,0,0,1.512-1.512v-5.67Z" transform="translate(-329.705 -364.326)" fill="#e6e6e6"/>
  <rect id="Rectangle_308" data-name="Rectangle 308" width="53.932" height="30.242" transform="translate(59.225 66.911)" fill="#fff"/>
  <circle id="Ellipse_160" data-name="Ellipse 160" cx="1.512" cy="1.512" r="1.512" transform="translate(84.678 101.942)" fill="#3f3d56"/>
  <path id="Path_794" data-name="Path 794" d="M969.455,743.114c-5.508.352-11.509-.021-17.893,0V728.5a64.5,64.5,0,0,0,17.893,0Z" transform="translate(-755.365 -563.173)" fill="#3f3d56"/>
  <path id="Path_795" data-name="Path 795" d="M826.834,583.487h-1.512l.5-29.539h.5Z" transform="translate(-621.061 -416.85)" fill="#3f3d56"/>
  <path id="Path_796" data-name="Path 796" d="M854.328,584.294h-1.512l.5-29.539h.5Z" transform="translate(-641.75 -417.457)" fill="#3f3d56"/>
  <path id="Path_797" data-name="Path 797" d="M802.4,584.294h-1.512l.5-29.539h.5Z" transform="translate(-602.67 -417.457)" fill="#3f3d56"/>
  <path id="Path_798" data-name="Path 798" d="M966.232,495.167l2.441-3.772a56.576,56.576,0,0,0-2.5-5.862l-1.578,1.275,1.25-1.931c-1.191-2.345-2.128-3.822-2.128-3.822s-4.9,7.714-6.531,15.882l3.132,4.841-3.468-2.8a22.882,22.882,0,0,0-.19,2.869c0,9.673,3.159,17.515,7.056,17.515s7.057-7.842,7.057-17.515a30.122,30.122,0,0,0-1.614-9.039Z" transform="translate(-759.198 -376.97)" fill="#e6e6e6"/>
  <path id="Path_799" data-name="Path 799" d="M993.722,497.2l2.441-3.772a56.524,56.524,0,0,0-2.5-5.862l-1.578,1.275,1.25-1.931c-1.191-2.345-2.128-3.822-2.128-3.822s-4.9,7.714-6.531,15.882l3.132,4.841-3.468-2.8a22.849,22.849,0,0,0-.19,2.869c0,9.673,3.159,17.515,7.056,17.515s7.057-7.842,7.057-17.515a30.122,30.122,0,0,0-1.614-9.039Z" transform="translate(-779.885 -378.502)" fill="#f26492"/>
  <path id="Path_800" data-name="Path 800" d="M941.793,497.2l2.441-3.772a56.55,56.55,0,0,0-2.5-5.862l-1.578,1.275,1.25-1.931c-1.191-2.345-2.128-3.822-2.128-3.822s-4.9,7.714-6.531,15.882l3.132,4.841-3.468-2.8a22.884,22.884,0,0,0-.19,2.869c0,9.673,3.159,17.515,7.057,17.515s7.057-7.842,7.057-17.515a30.124,30.124,0,0,0-1.614-9.039Z" transform="translate(-740.808 -378.502)" fill="#f26492"/>
  <rect id="Rectangle_309" data-name="Rectangle 309" width="14.542" height="0.835" transform="translate(76.714 75.448)" fill="#3f3d56"/>
  <rect id="Rectangle_310" data-name="Rectangle 310" width="22.456" height="0.835" transform="translate(76.714 78.493)" fill="#de8601"/>
  <rect id="Rectangle_311" data-name="Rectangle 311" width="18.301" height="0.835" transform="translate(76.714 81.361)" fill="#de8601"/>
  <rect id="Rectangle_312" data-name="Rectangle 312" width="10.684" height="0.835" transform="translate(76.714 84.219)" fill="#3f3d56"/>
  <rect id="Rectangle_313" data-name="Rectangle 313" width="16.125" height="0.835" transform="translate(76.714 87.077)" fill="#3f3d56"/>
  <rect id="Rectangle_314" data-name="Rectangle 314" width="1.781" height="1.781" transform="translate(70.086 75.151)" fill="#3f3d56"/>
  <rect id="Rectangle_315" data-name="Rectangle 315" width="1.781" height="1.781" transform="translate(70.086 78.02)" fill="#de8601"/>
  <rect id="Rectangle_316" data-name="Rectangle 316" width="1.781" height="1.781" transform="translate(70.086 80.888)" fill="#de8601"/>
  <rect id="Rectangle_317" data-name="Rectangle 317" width="1.781" height="1.781" transform="translate(70.086 83.757)" fill="#3f3d56"/>
  <rect id="Rectangle_318" data-name="Rectangle 318" width="1.781" height="1.781" transform="translate(70.086 86.626)" fill="#3f3d56"/>
  <path id="Path_801" data-name="Path 801" d="M581.552,331.3h-7.631a26.687,26.687,0,0,1,0-9.1h7.631a16.37,16.37,0,0,0,0,9.1Z" transform="translate(-470.894 -257.432)" fill="#de8601"/>
  <path id="Path_802" data-name="Path 802" d="M347.44,368.716l-3.139-.765a8.082,8.082,0,0,1-7.932-9.683h0a10.564,10.564,0,0,1,10.551-10.577h0A10.564,10.564,0,0,1,357.5,358.241h0A8.4,8.4,0,0,1,347.44,368.716Z" transform="translate(-292.308 -276.613)" fill="#2f2e41"/>
  <circle id="Ellipse_161" data-name="Ellipse 161" cx="7.762" cy="7.762" r="7.762" transform="translate(50.799 77.683)" fill="#ffb8b8"/>
  <path id="Path_803" data-name="Path 803" d="M363.386,422.108s-2.362,8.1-3.712,8.775,10.8,1.687,10.8,1.687-.337-7.762.337-8.437S363.386,422.108,363.386,422.108Z" transform="translate(-309.887 -332.613)" fill="#ffb8b8"/>
  <path id="Path_804" data-name="Path 804" d="M369.684,623.429s15.187-1.35,17.212,3.712-1.35,35.1-1.35,35.1h-6.412V637.6s-27.341-7.772-27.341-10.472S369.684,623.429,369.684,623.429Z" transform="translate(-304.034 -483.986)" fill="#2f2e41"/>
  <path id="Path_805" data-name="Path 805" d="M466.523,775.29l3.375,1.35s4.05-.337,2.362,2.7a6.684,6.684,0,0,1-4.725,3.375s-6.412,2.362-6.75,0,1.687-7.087,1.687-7.087Z" transform="translate(-386.025 -598.385)" fill="#2f2e41"/>
  <path id="Path_806" data-name="Path 806" d="M358.578,616.412s15.187-1.35,17.212,3.712-1.35,35.1-1.35,35.1h-6.412V630.587s-19.408-4.5-19.408-7.2c0-1.268-1.322-7.715,1.008-9.073C352.258,612.786,358.578,616.412,358.578,616.412Z" transform="translate(-301.366 -476.968)" fill="#2f2e41"/>
  <path id="Path_807" data-name="Path 807" d="M432.432,775.29l3.375,1.35s4.05-.337,2.362,2.7a6.684,6.684,0,0,1-4.725,3.375s-6.412,2.362-6.75,0,1.687-7.087,1.687-7.087Z" transform="translate(-360.371 -598.385)" fill="#2f2e41"/>
  <path id="Path_808" data-name="Path 808" d="M345.933,453.471l10.142,1.1a7.47,7.47,0,0,1,6.5,5.882l3.943,18.665s1.35,18.562-1.35,19.574-6.412-4.05-11.475-3.375-11.643,2.194-11.643,2.194-1.045-33.225-1.181-35.943C340.6,456.138,345.933,453.471,345.933,453.471Z" transform="translate(-295.808 -356.214)" fill="#575a89"/>
  <path id="Path_809" data-name="Path 809" d="M452.332,627.823l4.164,2.452s7.47-1.072,7.237,1.554-8.387,2.118-8.387,2.118l-5.018-3.092Z" transform="translate(-378.183 -487.415)" fill="#ffb8b8"/>
  <circle id="Ellipse_162" data-name="Ellipse 162" cx="5.014" cy="5.014" r="5.014" transform="translate(38.481 69.104)" fill="#2f2e41"/>
  <path id="Path_810" data-name="Path 810" d="M335.017,332.7a5.012,5.012,0,0,0-6-4.909,5.012,5.012,0,1,1,3.126,9.445,5.01,5.01,0,0,0,2.875-4.536Z" transform="translate(-286.896 -261.275)" fill="#2f2e41"/>
  <path id="Path_811" data-name="Path 811" d="M348.933,356.791l6.76-1.245,5.2,3.258a7.886,7.886,0,0,1,3.633,7.7l-5.207-1.32-1.166-2.923-1.389,2.276-7.26,9.343-4.076-2.6-3.634-5.695Z" transform="translate(-296.51 -282.524)" fill="#2f2e41"/>
  <path id="Path_812" data-name="Path 812" d="M393.136,459.94l3.375-1.687s7.087,1.012,8.437,5.737,7.425,37.462,7.425,37.462l-5.737,2.7-8.1-19.912Z" transform="translate(-335.146 -359.812)" fill="#575a89"/>
  <path id="Path_813" data-name="Path 813" d="M245.917,458.23l3.378,13.111,5.99,14.725-.208.51-7.144-14.989Z" transform="translate(-185.054 -344.821)" opacity="0.2"/>
  <path id="Path_814" data-name="Path 814" d="M140.462,644.917l-1.191-.41,11.539-34.275,1.668.575Z" transform="translate(-104.802 -459.203)" fill="#3f3d56"/>
  <path id="Path_815" data-name="Path 815" d="M285.756,644.917l1.191-.41-11.54-34.275-1.668.575Z" transform="translate(-205.991 -459.203)" fill="#3f3d56"/>
  <path id="Path_816" data-name="Path 816" d="M223.428,657.151l1.26,0,.392-40.067-1.764-.006Z" transform="translate(-168.046 -464.358)" fill="#3f3d56"/>
  <path id="Path_817" data-name="Path 817" d="M290.625,568.471l3.456,13.97a11.094,11.094,0,0,0,8.079,8.1h0a58.969,58.969,0,0,0,29.34-.189l5.161-1.361a7.283,7.283,0,0,0,5.467-6.46,6.356,6.356,0,0,0-.575-3.186l-.061-.127a8.431,8.431,0,0,0-7.325-4.737L328.7,574.3l-19.91-8.821s-6.847-3.478-12.477-3.867A5.521,5.521,0,0,0,290.625,568.471Z" transform="translate(-257.882 -437.583)" fill="#f26492"/>
  <rect id="Rectangle_319" data-name="Rectangle 319" width="19.657" height="26.714" transform="translate(134.452 86.947)" fill="#e6e6e6"/>
  <rect id="Rectangle_320" data-name="Rectangle 320" width="15.121" height="20.549" transform="translate(136.72 90.029)" fill="#fff"/>
  <rect id="Rectangle_321" data-name="Rectangle 321" width="7.326" height="0.835" transform="translate(142.672 95.407)" fill="#3f3d56"/>
  <rect id="Rectangle_322" data-name="Rectangle 322" width="1.781" height="1.781" transform="translate(138.564 94.945)" fill="#3f3d56"/>
  <rect id="Rectangle_323" data-name="Rectangle 323" width="7.326" height="0.835" transform="translate(142.672 98.935)" fill="#3f3d56"/>
  <rect id="Rectangle_324" data-name="Rectangle 324" width="1.781" height="1.781" transform="translate(138.564 98.473)" fill="#3f3d56"/>
  <rect id="Rectangle_325" data-name="Rectangle 325" width="7.326" height="0.835" transform="translate(142.672 102.463)" fill="#3f3d56"/>
  <rect id="Rectangle_326" data-name="Rectangle 326" width="1.781" height="1.781" transform="translate(138.564 102.001)" fill="#3f3d56"/>
  <rect id="Rectangle_327" data-name="Rectangle 327" width="1.512" height="1.512" rx="0.756" transform="translate(143.525 87.703)" fill="#3f3d56"/>
</svg>
