<svg xmlns="http://www.w3.org/2000/svg" width="23.32" height="23.32" viewBox="0 0 23.32 23.32">
  <g id="Group_3265" data-name="Group 3265" transform="translate(0 0)">
    <path id="Icon_material-insert-emoticon" data-name="Icon material-insert-emoticon" d="M14.649,3A11.654,11.654,0,1,0,22.9,6.409,11.66,11.66,0,0,0,14.649,3Zm.012,20.988a9.328,9.328,0,1,1,9.328-9.328,9.328,9.328,0,0,1-9.328,9.328ZM10.58,13.494a1.75,1.75,0,1,0-1.75-1.75,1.75,1.75,0,0,0,1.75,1.75Zm4.081,7.579a6.408,6.408,0,0,0,5.958-4.081H8.7a6.409,6.409,0,0,0,5.958,4.082Z" transform="translate(-3 -3)" fill="#e9e9e9"/>
    <rect id="Rectangle_2953" data-name="Rectangle 2953" width="3.886" height="1.911" transform="translate(13.06 7.65)" fill="#e9e9e9"/>
    <path id="Path_1895" data-name="Path 1895" d="M-.01,0H11.985s.268.358,0,1.429S.316,2.148.1,1.429A3.841,3.841,0,0,1-.01,0Z" transform="translate(5.61 12.6)" fill="#e9e9e9"/>
  </g>
</svg>
