<svg id="Icon_ionic-md-sad" data-name="Icon ionic-md-sad" xmlns="http://www.w3.org/2000/svg" width="23.32" height="23.32" viewBox="0 0 23.32 23.32">
  <path id="Path_1887" data-name="Path 1887" d="M16.545,20.25a6.34,6.34,0,0,0-5.73,3.587H22.274A6.34,6.34,0,0,0,16.545,20.25Z" transform="translate(-4.883 -6.796)" fill="#e9e9e9"/>
  <path id="Path_1888" data-name="Path 1888" d="M15.035,3.375a11.66,11.66,0,1,0,11.66,11.66,11.66,11.66,0,0,0-11.66-11.66Zm0,20.988a9.328,9.328,0,1,1,9.328-9.328A9.328,9.328,0,0,1,15.035,24.363Z" transform="translate(-3.375 -3.375)" fill="#e9e9e9"/>
  <path id="Path_1889" data-name="Path 1889" d="M22.674,15.647a1.75,1.75,0,1,0-1.75-1.75,1.718,1.718,0,0,0,1.75,1.75Z" transform="translate(-6.932 -5.153)" fill="#e9e9e9"/>
  <path id="Path_1890" data-name="Path 1890" d="M12.436,15.647a1.75,1.75,0,1,0-1.75-1.75,1.718,1.718,0,0,0,1.75,1.75Z" transform="translate(-4.857 -5.153)" fill="#e9e9e9"/>
</svg>
