<svg xmlns="http://www.w3.org/2000/svg" xmlns:xlink="http://www.w3.org/1999/xlink" width="293.058" height="50.254" viewBox="0 0 293.058 50.254">
  <defs>
    <linearGradient id="linear-gradient" x1="0.064" y1="0.5" x2="0.941" y2="0.5" gradientUnits="objectBoundingBox">
      <stop offset="0" stop-color="#ffb811"/>
      <stop offset="1" stop-color="#ff1673"/>
    </linearGradient>
  </defs>
  <g id="logo_experience_plus" transform="translate(-995.669 -781.271)" opacity="0.8">
    <text id="xperience" transform="translate(1045.537 821.525)" fill="#ffa41d" font-size="41" font-family="Montserrat-Medium, Montserrat" font-weight="500"><tspan x="0" y="0">x</tspan><tspan y="0" fill="#ff8f29">pe</tspan><tspan y="0" fill="#ff723b">ri</tspan><tspan y="0" fill="#ff534d">e</tspan><tspan y="0" fill="#ff3560">nc</tspan><tspan y="0" fill="#ff1872">e</tspan></text>
    <text id="_" data-name="+" transform="translate(1264.727 821.525)" fill="#ffb811" font-size="41" font-family="Montserrat-Medium, Montserrat" font-weight="500"><tspan x="0" y="0">+</tspan></text>
    <path id="Union_2" data-name="Union 2" d="M20.122,48.6A3.262,3.262,0,0,1,19,47.74a3.567,3.567,0,0,1-.684-1.289,4.112,4.112,0,0,1-.137-1.585,4.607,4.607,0,0,1,.464-1.588,4.74,4.74,0,0,1,.954-1.3,4.381,4.381,0,0,1,1.3-.87,3.793,3.793,0,0,1,1.514-.314,3.338,3.338,0,0,1,1.441.327A3.27,3.27,0,0,1,24.968,42a3.587,3.587,0,0,1,.669,1.29,4.12,4.12,0,0,1,.126,1.574,4.611,4.611,0,0,1-.464,1.571,4.741,4.741,0,0,1-.943,1.283,4.4,4.4,0,0,1-1.289.869,3.8,3.8,0,0,1-1.5.324h-.017A3.344,3.344,0,0,1,20.122,48.6Zm12.262-2.011a3.982,3.982,0,0,1-1.286-.886,4.031,4.031,0,0,1-.853-1.318,4.121,4.121,0,0,1-.288-1.618,4.234,4.234,0,0,1,.36-1.62,4.294,4.294,0,0,1,.913-1.323,4.237,4.237,0,0,1,1.329-.89,4.11,4.11,0,0,1,1.609-.324,3.976,3.976,0,0,1,2.872,1.223,4.035,4.035,0,0,1,.845,1.32,4.121,4.121,0,0,1,.281,1.613,4.238,4.238,0,0,1-.361,1.612A4.306,4.306,0,0,1,36.9,45.7a4.249,4.249,0,0,1-1.322.889,4.109,4.109,0,0,1-1.6.329h-.009A4,4,0,0,1,32.384,46.593Zm-20.558.138a2.783,2.783,0,0,1-1.245-.324,2.658,2.658,0,0,1-.941-.845,3.064,3.064,0,0,1-.479-1.186A3.778,3.778,0,0,1,9.172,43,4.415,4.415,0,0,1,9.7,41.6a4.573,4.573,0,0,1,.965-1.168A4.14,4.14,0,0,1,11.87,39.7a3.4,3.4,0,0,1,1.3-.236,2.786,2.786,0,0,1,1.242.318,2.649,2.649,0,0,1,.943.838A3.053,3.053,0,0,1,15.84,41.8a3.779,3.779,0,0,1,0,1.373,4.423,4.423,0,0,1-.523,1.409,4.584,4.584,0,0,1-.967,1.175,4.139,4.139,0,0,1-1.213.735,3.417,3.417,0,0,1-1.226.236ZM3.443,40.936c-1.162-1.01-1.081-3.007.182-4.459s3.228-1.811,4.39-.8,1.081,3.007-.182,4.459A3.791,3.791,0,0,1,5.051,41.51,2.413,2.413,0,0,1,3.443,40.936ZM.69,34.5c-.937-.815-.8-2.5.3-3.772s2.756-1.636,3.694-.821.8,2.5-.3,3.772a3.4,3.4,0,0,1-2.462,1.255A1.843,1.843,0,0,1,.69,34.5ZM.641,27.957a2.509,2.509,0,0,1,.15-3.5,2.509,2.509,0,0,1,3.444-.635,2.509,2.509,0,0,1-.15,3.5A2.985,2.985,0,0,1,1.9,28.4,1.883,1.883,0,0,1,.641,27.957Zm16.32-1.076c-.628-1.234.23-2.931,1.919-3.792s3.567-.557,4.2.677-.23,2.931-1.919,3.792a4.337,4.337,0,0,1-1.95.49A2.4,2.4,0,0,1,16.961,26.881Zm9.062-2.524c-.734-1.323.106-3.191,1.876-4.172s3.8-.7,4.532.62S32.325,24,30.555,24.976a4.514,4.514,0,0,1-2.167.587A2.6,2.6,0,0,1,26.023,24.356ZM2.7,20.756c-.763-.663-.576-2.126.416-3.267s2.415-1.53,3.178-.867.576,2.126-.416,3.268a3.171,3.171,0,0,1-2.244,1.19A1.394,1.394,0,0,1,2.7,20.756Zm30.358-3.3c-.675-1.218.212-3,1.982-3.982s3.752-.788,4.427.43-.212,3-1.982,3.982a4.771,4.771,0,0,1-2.278.626A2.342,2.342,0,0,1,33.056,17.453ZM6.7,14.564c-.666-.579-.4-1.974.591-3.116s2.337-1.6,3-1.019.4,1.974-.591,3.115a3.314,3.314,0,0,1-2.265,1.27A1.1,1.1,0,0,1,6.7,14.564ZM34.531,9.319c-.543-1.113.414-2.7,2.138-3.536s3.56-.62,4.1.493-.415,2.7-2.138,3.536a4.811,4.811,0,0,1-2.077.51A2.127,2.127,0,0,1,34.531,9.319ZM12,8.707c-.567-.676-.167-1.945.894-2.835s2.38-1.063,2.947-.388.167,1.945-.893,2.836a3.157,3.157,0,0,1-1.937.8A1.274,1.274,0,0,1,12,8.707Zm5.92-3.765c-.387-.793.309-1.928,1.553-2.535s2.567-.456,2.953.337-.309,1.928-1.553,2.535a3.506,3.506,0,0,1-1.512.372A1.513,1.513,0,0,1,17.924,4.943Zm13.441-.37c-.486-1,.329-2.4,1.822-3.124s3.1-.51,3.583.487-.329,2.4-1.822,3.124a4.07,4.07,0,0,1-1.761.43A1.918,1.918,0,0,1,31.365,4.573ZM25.042,3.237c-.443-.909.3-2.182,1.66-2.846s2.821-.465,3.264.444-.3,2.183-1.66,2.846a3.709,3.709,0,0,1-1.6.392A1.747,1.747,0,0,1,25.042,3.237Z" transform="translate(995.669 781.271)" fill="url(#linear-gradient)"/>
  </g>
</svg>
