<svg xmlns="http://www.w3.org/2000/svg" xmlns:xlink="http://www.w3.org/1999/xlink" width="472.114" height="77.377" viewBox="0 0 472.114 77.377"><defs><linearGradient id="a" x1="0.064" y1="0.5" x2="0.941" y2="0.5" gradientUnits="objectBoundingBox"><stop offset="0" stop-color="#ffb811"/><stop offset="1" stop-color="#ff1673"/></linearGradient></defs><g transform="translate(-995.669 -781.271)"><text transform="translate(1069.642 842.648)" fill="#ffb811" font-size="63" font-family="Montserrat-Medium, Montserrat" font-weight="500"><tspan x="0" y="0">e</tspan><tspan y="0" fill="#ffa41d">x</tspan><tspan y="0" fill="#ff8f29">pe</tspan><tspan y="0" fill="#ff723b">ri</tspan><tspan y="0" fill="#ff534d">e</tspan><tspan y="0" fill="#ff3560">nc</tspan><tspan y="0" fill="#ff1872">e</tspan></text><text transform="translate(1430.783 842.648)" fill="#ffb811" font-size="63" font-family="Montserrat-Medium, Montserrat" font-weight="500"><tspan x="0" y="0">+</tspan></text><path d="M29.849,72.1a4.838,4.838,0,0,1-1.659-1.281,5.29,5.29,0,0,1-1.015-1.912,6.1,6.1,0,0,1-.2-2.351,6.833,6.833,0,0,1,.689-2.355,7.032,7.032,0,0,1,1.415-1.922,6.5,6.5,0,0,1,1.935-1.291,5.626,5.626,0,0,1,2.246-.465,4.952,4.952,0,0,1,2.138.486,4.85,4.85,0,0,1,1.643,1.3,5.322,5.322,0,0,1,.992,1.914,6.112,6.112,0,0,1,.187,2.335,6.839,6.839,0,0,1-.688,2.33,7.033,7.033,0,0,1-1.4,1.9,6.523,6.523,0,0,1-1.912,1.289,5.643,5.643,0,0,1-2.23.481h-.026A4.96,4.96,0,0,1,29.849,72.1Zm18.188-2.983A5.907,5.907,0,0,1,46.13,67.8a5.979,5.979,0,0,1-1.265-1.956,6.113,6.113,0,0,1-.427-2.4,6.281,6.281,0,0,1,.533-2.4,6.37,6.37,0,0,1,1.355-1.962A6.285,6.285,0,0,1,48.3,57.76a6.1,6.1,0,0,1,2.386-.48,5.9,5.9,0,0,1,4.261,1.814A5.985,5.985,0,0,1,56.2,61.052a6.113,6.113,0,0,1,.417,2.393,6.286,6.286,0,0,1-.535,2.391,6.388,6.388,0,0,1-1.347,1.952,6.3,6.3,0,0,1-1.961,1.318,6.1,6.1,0,0,1-2.376.488h-.014A5.933,5.933,0,0,1,48.038,69.115Zm-30.495.2a4.128,4.128,0,0,1-1.847-.48,3.943,3.943,0,0,1-1.4-1.253,4.545,4.545,0,0,1-.71-1.76,5.6,5.6,0,0,1,.015-2.035,6.549,6.549,0,0,1,.781-2.082,6.784,6.784,0,0,1,1.431-1.733,6.141,6.141,0,0,1,1.791-1.084,5.044,5.044,0,0,1,1.927-.35,4.132,4.132,0,0,1,1.842.472,3.93,3.93,0,0,1,1.4,1.242,4.529,4.529,0,0,1,.72,1.754,5.605,5.605,0,0,1-.006,2.036,6.562,6.562,0,0,1-.776,2.09,6.8,6.8,0,0,1-1.435,1.743,6.139,6.139,0,0,1-1.8,1.09,5.069,5.069,0,0,1-1.819.35Zm-12.435-8.6c-1.724-1.5-1.6-4.46.27-6.614s4.788-2.686,6.512-1.188,1.6,4.46-.27,6.614a5.623,5.623,0,0,1-4.127,2.039A3.579,3.579,0,0,1,5.107,60.724Zm-4.083-9.55c-1.39-1.208-1.191-3.714.444-5.595s4.089-2.427,5.479-1.218,1.192,3.713-.444,5.595a5.051,5.051,0,0,1-3.652,1.861A2.734,2.734,0,0,1,1.024,51.174Zm-.073-9.7c-1.35-1.174-1.25-3.5.222-5.191s3.76-2.115,5.109-.942,1.25,3.5-.222,5.191a4.428,4.428,0,0,1-3.247,1.607A2.794,2.794,0,0,1,.951,41.47Zm24.208-1.6c-.932-1.83.342-4.348,2.846-5.625s5.291-.827,6.223,1-.342,4.348-2.846,5.625a6.433,6.433,0,0,1-2.893.726A3.568,3.568,0,0,1,25.159,39.874ZM38.6,36.13c-1.089-1.963.158-4.734,2.783-6.189s5.635-1.043,6.723.92-.158,4.734-2.783,6.189a6.7,6.7,0,0,1-3.214.87A3.85,3.85,0,0,1,38.6,36.13ZM4,30.788c-1.131-.983-.855-3.154.617-4.847s3.583-2.27,4.715-1.286.855,3.154-.617,4.847a4.7,4.7,0,0,1-3.328,1.766A2.068,2.068,0,0,1,4,30.788Zm45.033-4.9c-1-1.807.314-4.452,2.94-5.907s5.565-1.169,6.567.638-.314,4.452-2.94,5.907a7.077,7.077,0,0,1-3.379.929A3.475,3.475,0,0,1,49.034,25.889ZM9.944,21.6c-.987-.859-.595-2.928.877-4.622s3.467-2.37,4.454-1.512.6,2.928-.877,4.621a4.916,4.916,0,0,1-3.36,1.884A1.627,1.627,0,0,1,9.944,21.6Zm41.278-7.78c-.805-1.651.615-4,3.171-5.246s5.281-.92,6.086.731-.615,4-3.171,5.246a7.137,7.137,0,0,1-3.081.757A3.156,3.156,0,0,1,51.222,13.824Zm-33.416-.907c-.841-1-.248-2.886,1.326-4.206s3.531-1.577,4.372-.575.248,2.886-1.325,4.206a4.684,4.684,0,0,1-2.873,1.186A1.891,1.891,0,0,1,17.806,12.916Zm8.782-5.584c-.574-1.177.458-2.86,2.3-3.76s3.807-.677,4.381.5-.458,2.86-2.3,3.76a5.2,5.2,0,0,1-2.243.552A2.244,2.244,0,0,1,26.588,7.332Zm19.938-.548c-.721-1.479.488-3.554,2.7-4.633s4.594-.756,5.315.723-.488,3.554-2.7,4.634a6.037,6.037,0,0,1-2.612.638A2.846,2.846,0,0,1,46.526,6.784ZM37.147,4.8c-.658-1.348.445-3.237,2.462-4.221s4.185-.689,4.842.658-.445,3.238-2.462,4.221a5.5,5.5,0,0,1-2.38.581A2.592,2.592,0,0,1,37.147,4.8Z" transform="translate(995.669 781.271)" fill="url(#a)"/></g></svg>