<svg xmlns="http://www.w3.org/2000/svg" width="344.94" height="140.968" viewBox="0 0 344.94 140.968">
  <g id="undraw_processing_re_tbdu_1_" data-name="undraw_processing_re_tbdu (1)" transform="translate(0 0)">
    <path id="Path_818" data-name="Path 818" d="M743.382,392.009a4.108,4.108,0,0,1,5.559,2.581,3.96,3.96,0,0,1,.12.536l16.4,8.134,3.8-2.516,4.723,5.437-5.8,4.707a4.162,4.162,0,0,1-4.966.192l-16.642-11.509a3.92,3.92,0,0,1-.379.138,4.108,4.108,0,0,1-5.23-3.2,4,4,0,0,1-.061-.5A4.12,4.12,0,0,1,743.382,392.009Z" transform="translate(-515.832 -342.963)" fill="#ffb8b8"/>
    <path id="Path_819" data-name="Path 819" d="M202.8,456.153a2.427,2.427,0,0,0,2.427,2.427h3.96l.706,1.279v56.77a2.427,2.427,0,0,0,4.853,0v-58.05H347.6l.037,58.05a2.427,2.427,0,0,0,4.853,0v-58.05h4.293a2.427,2.427,0,0,0,0-4.853H205.222a2.427,2.427,0,0,0-2.426,2.426Z" transform="translate(-178.607 -381.852)" fill="#747474"/>
    <path id="Path_820" data-name="Path 820" d="M289.655,534.58v-8.96a1.493,1.493,0,0,0-1.493-1.493H254.19a1.493,1.493,0,0,0-1.493,1.493v8.96Z" transform="translate(-209.879 -425.971)" fill="#3f3d56"/>
    <rect id="Rectangle_328" data-name="Rectangle 328" width="36.958" height="11.573" transform="translate(42.818 111.969)" fill="#3f3d56"/>
    <path id="Path_821" data-name="Path 821" d="M252.7,601.127v8.959a1.493,1.493,0,0,0,1.493,1.493h33.971a1.493,1.493,0,0,0,1.493-1.493v-8.96Z" transform="translate(-209.879 -474.226)" fill="#3f3d56"/>
    <circle id="Ellipse_163" data-name="Ellipse 163" cx="1.12" cy="1.12" r="1.12" transform="translate(60.363 102.636)" fill="#fff"/>
    <circle id="Ellipse_164" data-name="Ellipse 164" cx="1.12" cy="1.12" r="1.12" transform="translate(60.363 117.568)" fill="#fff"/>
    <circle id="Ellipse_165" data-name="Ellipse 165" cx="1.12" cy="1.12" r="1.12" transform="translate(60.303 132.185)" fill="#fff"/>
    <path id="Path_822" data-name="Path 822" d="M234,444.3v2.964a.616.616,0,0,0,.65.571h11.729a.724.724,0,0,0,.321-.075l2.96-1.482a.54.54,0,0,0,0-.993L246.7,443.8a.725.725,0,0,0-.321-.075H234.65A.616.616,0,0,0,234,444.3Z" transform="translate(-198.162 -375.585)" fill="#3f3d56"/>
    <path id="Path_823" data-name="Path 823" d="M234.65,443.728h2.337v4.106H234.65a.616.616,0,0,1-.65-.571V444.3a.616.616,0,0,1,.65-.571Z" transform="translate(-198.162 -375.585)" fill="#de8601"/>
    <path id="Path_824" data-name="Path 824" d="M962.284,501.076a9.237,9.237,0,0,1-8.92-1.571c-3.124-2.622-4.1-6.943-4.9-10.943l-2.357-11.832,4.936,3.4c3.549,2.444,7.179,4.966,9.637,8.506s3.53,8.373,1.556,12.2" transform="translate(-644.43 -396.268)" fill="#ff1762"/>
    <path id="Path_825" data-name="Path 825" d="M976.446,540.637a47.754,47.754,0,0,0,.663-11,17.3,17.3,0,0,0-3.336-9.072,15.089,15.089,0,0,0-3.872-3.509c-.387-.244-.744.369-.358.613a14.347,14.347,0,0,1,5.675,6.848,23,23,0,0,1,1.221,9.907c-.129,2.019-.4,4.025-.677,6.028a.368.368,0,0,0,.248.436.357.357,0,0,0,.436-.248Z" transform="translate(-659.014 -421.503)" fill="#6b709d"/>
    <path id="Path_826" data-name="Path 826" d="M941.291,550.715a6.8,6.8,0,0,1-5.925,3.058c-3-.142-5.5-2.236-7.751-4.223l-6.658-5.878,4.406-.211c3.169-.152,6.419-.293,9.437.684s5.8,3.329,6.354,6.453" transform="translate(-628.67 -438.019)" fill="#ff5e00"/>
    <path id="Path_827" data-name="Path 827" d="M967.34,567.494c-2.4-4.255-5.193-8.983-10.177-10.494a11.356,11.356,0,0,0-4.281-.442c-.455.039-.341.74.113.7a10.55,10.55,0,0,1,6.831,1.807,17.756,17.756,0,0,1,4.7,5.067c.777,1.184,1.474,2.418,2.17,3.651.223.394.873.11.648-.289Z" transform="translate(-648.496 -446.267)" fill="#f2f2f2"/>
    <path id="Path_828" data-name="Path 828" d="M983.561,586.553a5.149,5.149,0,0,0-3.155-4.313v-2.46H976.28v2.537a5.146,5.146,0,0,0-2.983,4.235l-.97,11.276h12.2Z" transform="translate(-660.863 -460.849)" fill="#6b709d"/>
    <path id="Path_829" data-name="Path 829" d="M138,628.566a.373.373,0,0,1,.373-.373l344.329.136c.206,0,.238.031.238.238a.373.373,0,0,1-.373.373H138.373A.373.373,0,0,1,138,628.566Z" transform="translate(-138 -491.188)" fill="#6b709d"/>
    <path id="Path_830" data-name="Path 830" d="M377.015,441.472l1.225-.516.841-6.143h11.195l.911,6.118,1.1.548a.26.26,0,0,1-.116.493H377.115a.26.26,0,0,1-.1-.5Z" transform="translate(-287.688 -369.999)" fill="#e6e6e6"/>
    <path id="Path_831" data-name="Path 831" d="M321.079,421.066v-7.755h57.166v7.755a1.089,1.089,0,0,1-1.087,1.089H322.166a1.089,1.089,0,0,1-1.087-1.089Z" transform="translate(-252.733 -356.524)" fill="#ccc"/>
    <path id="Path_832" data-name="Path 832" d="M320.925,332.043a1.315,1.315,0,0,1,1.313-1.313h54.647a1.315,1.315,0,0,1,1.313,1.313v33.18H320.925Z" transform="translate(-252.637 -304.771)" fill="#3f3d56"/>
    <path id="Path_833" data-name="Path 833" d="M327.376,365.846V338.193a1.014,1.014,0,0,1,1.013-1.013h50.432a1.014,1.014,0,0,1,1.013,1.013v27.652a1.014,1.014,0,0,1-1.013,1.013H328.389A1.014,1.014,0,0,1,327.376,365.846Z" transform="translate(-256.68 -308.814)" fill="#fff"/>
    <path id="Path_834" data-name="Path 834" d="M612.1,261.193h50.543v60.35H612.1Z" transform="translate(-435.113 -261.193)" fill="#fff"/>
    <path id="Path_835" data-name="Path 835" d="M612.1,261.193h50.543v60.35H612.1Zm49.651.892h-48.76v58.566h48.76Z" transform="translate(-435.113 -261.193)" fill="#e5e5e5"/>
    <rect id="Rectangle_329" data-name="Rectangle 329" width="35.356" height="1.366" transform="translate(184.581 29.224)" fill="#f1f1f1"/>
    <path id="Path_836" data-name="Path 836" d="M556.811,33.2h.385V19.379H543.614v.386h13.2Z" transform="translate(-340.677 -12.145)" fill="#cbcbcb"/>
    <path id="Path_837" data-name="Path 837" d="M506.2,36.6h13.582v-.385h-13.2V22.777H506.2Z" transform="translate(-317.229 -14.274)" fill="#cbcbcb"/>
    <rect id="Rectangle_330" data-name="Rectangle 330" width="35.356" height="1.366" transform="translate(184.581 32.787)" fill="#f1f1f1"/>
    <rect id="Rectangle_331" data-name="Rectangle 331" width="35.356" height="1.366" transform="translate(184.581 36.349)" fill="#f1f1f1"/>
    <rect id="Rectangle_332" data-name="Rectangle 332" width="35.356" height="1.366" transform="translate(184.581 42.619)" fill="#f1f1f1"/>
    <rect id="Rectangle_333" data-name="Rectangle 333" width="35.356" height="1.366" transform="translate(184.581 46.181)" fill="#f1f1f1"/>
    <rect id="Rectangle_334" data-name="Rectangle 334" width="35.356" height="1.366" transform="translate(184.581 49.743)" fill="#f1f1f1"/>
    <path id="Path_838" data-name="Path 838" d="M663.256,287.462l.356-.436-.537-.611-.479.3a2.669,2.669,0,0,0-.933-.47l-.062-.613-.812-.053-.136.583a2.67,2.67,0,0,0-1.081.361l-.4-.329-.611.537.275.443a2.669,2.669,0,0,0-.5,1.026l-.6.06-.053.812.6.14a2.668,2.668,0,0,0,.35.991l-.33.4.537.611.443-.275a2.669,2.669,0,0,0,.963.482l.064.637.812.053.144-.618a2.669,2.669,0,0,0,1.04-.354l.436.356.611-.537-.3-.479a2.67,2.67,0,0,0,.485-.986l.631-.064.053-.812-.623-.146A2.67,2.67,0,0,0,663.256,287.462Zm-.851,3a2.17,2.17,0,1,1,.2-3.063,2.17,2.17,0,0,1-.2,3.063Z" transform="translate(-463.682 -276.473)" fill="#de8601"/>
    <path id="Path_839" data-name="Path 839" d="M675.97,301.939l.492-.275-.275-.766-.554.1a2.669,2.669,0,0,0-.695-.78l.168-.593-.736-.347-.341.493a2.67,2.67,0,0,0-1.138-.061l-.254-.455-.766.275.093.512a2.67,2.67,0,0,0-.839.772l-.577-.163-.347.736.507.351a2.667,2.667,0,0,0-.039,1.051l-.455.254.275.766.513-.093a2.669,2.669,0,0,0,.718.8l-.174.616.736.347.361-.521a2.67,2.67,0,0,0,1.1.053l.275.492.766-.275-.1-.554a2.671,2.671,0,0,0,.813-.739l.61.173.347-.736-.526-.365A2.669,2.669,0,0,0,675.97,301.939Zm-1.893,2.476a2.17,2.17,0,1,1,1.309-2.776,2.17,2.17,0,0,1-1.309,2.776Z" transform="translate(-471.524 -285.047)" fill="#de8601"/>
    <path id="Path_840" data-name="Path 840" d="M692.546,294.035l.339-.45-.561-.589-.466.316a2.669,2.669,0,0,0-.951-.433l-.086-.61-.813-.02-.113.588a2.67,2.67,0,0,0-1.066.4l-.416-.313-.589.561.292.431a2.67,2.67,0,0,0-.456,1.045l-.593.084-.02.813.605.116a2.668,2.668,0,0,0,.389.977l-.313.416.561.589.431-.292a2.669,2.669,0,0,0,.981.443l.09.634.813.02.12-.623a2.669,2.669,0,0,0,1.026-.395l.45.339.589-.561-.316-.466a2.67,2.67,0,0,0,.445-1l.628-.089.02-.813-.629-.121a2.668,2.668,0,0,0-.39-1Zm-.73,3.03a2.17,2.17,0,1,1,.076-3.068,2.17,2.17,0,0,1-.076,3.068Z" transform="translate(-482.08 -280.655)" fill="#de8601"/>
    <path id="Path_841" data-name="Path 841" d="M390.373,366.491l1.448-.115.18-2.091-1.407-.361a6.882,6.882,0,0,0-.789-2.575l1.031-1.209-1.351-1.605-1.33.787a6.885,6.885,0,0,0-2.6-1.369l-.106-1.339-2.091-.18-.334,1.3a6.883,6.883,0,0,0-2.8.9l-1.176-1-1.605,1.351.81,1.368a6.879,6.879,0,0,0-1.221,2.42l-1.339.106-.18,2.091,1.3.334a6.884,6.884,0,0,0,.821,2.652l-1.071,1.256,1.351,1.605,1.408-.833a6.884,6.884,0,0,0,2.515,1.306l.115,1.448,2.091.18.361-1.407a6.886,6.886,0,0,0,2.7-.857l1.245,1.061,1.606-1.351-.841-1.42A6.884,6.884,0,0,0,390.373,366.491Zm-7.1,3.766a5.6,5.6,0,1,1,6.056-5.1,5.6,5.6,0,0,1-6.056,5.1Z" transform="translate(-286.847 -320.879)" fill="#de8601"/>
    <path id="Path_842" data-name="Path 842" d="M774.824,526.722H756.9c0,.515-18.471.933-18.471.933a4.8,4.8,0,0,0-.788.747,4.633,4.633,0,0,0-1.083,2.987v.747a4.668,4.668,0,0,0,4.666,4.666h33.6a4.67,4.67,0,0,0,4.666-4.666v-.747A4.673,4.673,0,0,0,774.824,526.722Z" transform="translate(-513.11 -427.597)" fill="#3f3d56"/>
    <rect id="Rectangle_335" data-name="Rectangle 335" width="4.853" height="31.358" transform="translate(242.218 109.019)" fill="#3f3d56"/>
    <path id="Path_843" data-name="Path 843" d="M749.836,628.907c0,.524,7.354.2,16.426.2s16.426.322,16.426-.2-7.354-4.683-16.426-4.683S749.836,628.383,749.836,628.907Z" transform="translate(-521.43 -488.701)" fill="#3f3d56"/>
    <path id="Path_844" data-name="Path 844" d="M612.233,345.8h-4.576l-2.177-11.87h6.755Z" transform="translate(-379.447 -209.272)" fill="#ffb8b8"/>
    <path id="Path_845" data-name="Path 845" d="M739.925,628.85H725.167v-.187a5.744,5.744,0,0,1,5.744-5.744h9.014Z" transform="translate(-505.971 -487.883)" fill="#2f2e41"/>
    <path id="Path_846" data-name="Path 846" d="M726.843,536.323l-9.124-20.46a7.5,7.5,0,0,1,3.292-9.626L740.8,495.625l9.031-.768,8.33-.757.06.1a8.432,8.432,0,0,1,.657,6.616c-.918,2.573-3.307,4.583-7.1,5.974-8.853,3.246-19.08,6.02-23.066,7.062a1.288,1.288,0,0,0-.826.657,1.306,1.306,0,0,0-.073,1.045l8.477,19.044a1.68,1.68,0,0,1-1.422,2.251l-6.334.461q-.081.008-.161.008A1.679,1.679,0,0,1,726.843,536.323Z" transform="translate(-500.901 -407.153)" fill="#2f2e41"/>
    <path id="Path_847" data-name="Path 847" d="M620.233,345.8h-4.576l-2.178-11.87h6.755Z" transform="translate(-384.46 -209.272)" fill="#ffb8b8"/>
    <path id="Path_848" data-name="Path 848" d="M747.925,628.85H733.167v-.187a5.744,5.744,0,0,1,5.744-5.744h9.014Z" transform="translate(-510.985 -487.883)" fill="#2f2e41"/>
    <path id="Path_849" data-name="Path 849" d="M735.843,539.494l-9.124-20.46a7.5,7.5,0,0,1,3.292-9.626L749.8,498.8l9.031-.768,6.525-.566v-.089a8.431,8.431,0,0,1,.657,6.616c-.918,2.573-1.441,4.583-5.233,5.974-8.853,3.246-19.08,6.02-23.066,7.062a1.288,1.288,0,0,0-.825.657,1.306,1.306,0,0,0-.073,1.045l8.477,19.044a1.68,1.68,0,0,1-1.422,2.251l-6.334.461q-.081.008-.161.008A1.679,1.679,0,0,1,735.843,539.494Z" transform="translate(-506.542 -409.204)" fill="#2f2e41"/>
    <path id="Path_850" data-name="Path 850" d="M785.135,445.665c-.437-.309-6.72,2.987-7.84.373,5.226-13.066,1.625-18.708,4.826-26.2a9.33,9.33,0,0,1,6.185-5.293l8.306-.419.043.021a9.708,9.708,0,0,1,5.308,10.3c-.03,8.154-4.908,14.374-3.2,20.288a1.912,1.912,0,0,1-.181,1.487,1.823,1.823,0,0,1-1.163.862l-10.967-1.463a1.853,1.853,0,0,1-1.5-.29Z" transform="translate(-538.639 -357.034)" fill="#6b709d"/>
    <circle id="Ellipse_166" data-name="Ellipse 166" cx="9.169" cy="9.169" r="9.169" transform="translate(246.033 35.651)" fill="#ffb8b8"/>
    <path id="Path_851" data-name="Path 851" d="M739.358,429.972,723.427,417.4a3.938,3.938,0,0,1-.387.114,4.117,4.117,0,0,1-3.292-.631,4.106,4.106,0,1,1,6.35-4.306,3.94,3.94,0,0,1,.086.542l15.859,9.149L745.989,420l4.372,5.724-6.128,4.367A4.085,4.085,0,0,1,739.358,429.972Z" transform="translate(-501.475 -354.082)" fill="#ffb8b8"/>
    <path id="Path_852" data-name="Path 852" d="M794.645,434.381l-9.09-6.181,4.272-6.05a4.169,4.169,0,0,1,5.2-1.359h0a4.169,4.169,0,0,1,2.2,4.959Z" transform="translate(-543.815 -360.957)" fill="#de8601"/>
    <path id="Path_853" data-name="Path 853" d="M807.439,369.525c-.487.213-1.485-3.669-1.038-4.445.665-1.155.625-1.146,1.067-1.91a2.215,2.215,0,0,0-.031-2.482,1.306,1.306,0,0,0-2.154.26c.168-1.6-1.416-2.887-2.984-3.249s-3.223-.137-4.8-.459c-1.83-.373-3.734-1.908-3-3.92a2.835,2.835,0,0,1,.553-.909,6.992,6.992,0,0,1,3.178-1.745,21.046,21.046,0,0,1,7.4-1.55,10.75,10.75,0,0,1,9.5,6.947,9.766,9.766,0,0,1,.4,1.5,10.077,10.077,0,0,1-6.255,11.068Z" transform="translate(-549.317 -316.29)" fill="#2f2e41"/>
    <path id="Path_854" data-name="Path 854" d="M480.619,531.3v.747a4.67,4.67,0,0,0,4.666,4.666h33.6a4.668,4.668,0,0,0,4.666-4.666V531.3a4.633,4.633,0,0,0-1.083-2.986,4.8,4.8,0,0,0-.788-.747s-18.471-.418-18.471-.933H485.285A4.673,4.673,0,0,0,480.619,531.3Z" transform="translate(-352.715 -427.542)" fill="#3f3d56"/>
    <rect id="Rectangle_336" data-name="Rectangle 336" width="4.853" height="31.358" transform="translate(147.212 108.985)" fill="#3f3d56"/>
    <path id="Path_855" data-name="Path 855" d="M510.769,624.136c-9.072,0-16.426,4.158-16.426,4.683s7.354.2,16.426.2,16.426.322,16.426-.2S519.84,624.136,510.769,624.136Z" transform="translate(-361.316 -488.646)" fill="#3f3d56"/>
    <path id="Path_856" data-name="Path 856" d="M443.761,332.184h6.755l-2.178,11.87h-4.576Z" transform="translate(-278.1 -208.176)" fill="#ffb8b8"/>
    <path id="Path_857" data-name="Path 857" d="M578.636,621.171h9.014a5.744,5.744,0,0,1,5.744,5.744v.187H578.636Z" transform="translate(-414.141 -486.787)" fill="#2f2e41"/>
    <path id="Path_858" data-name="Path 858" d="M544.082,535.571q-.08,0-.161-.008l-6.334-.461a1.68,1.68,0,0,1-1.422-2.251l8.477-19.044a1.306,1.306,0,0,0-.073-1.045,1.289,1.289,0,0,0-.826-.657c-3.986-1.042-14.213-3.816-23.066-7.062-3.793-1.391-6.182-3.4-7.1-5.974a8.432,8.432,0,0,1,.657-6.616l.06-.1,8.33.757,9.031.768,19.791,10.612a7.5,7.5,0,0,1,3.292,9.626l-9.124,20.46A1.679,1.679,0,0,1,544.082,535.571Z" transform="translate(-373.108 -406.058)" fill="#2f2e41"/>
    <path id="Path_859" data-name="Path 859" d="M437.761,332.184h6.755l-2.178,11.87h-4.576Z" transform="translate(-274.34 -208.176)" fill="#ffb8b8"/>
    <path id="Path_860" data-name="Path 860" d="M572.636,621.171h9.014a5.744,5.744,0,0,1,5.744,5.744v.187H572.636Z" transform="translate(-410.381 -486.787)" fill="#2f2e41"/>
    <path id="Path_861" data-name="Path 861" d="M537.082,538.571q-.08,0-.161-.008l-6.334-.461a1.68,1.68,0,0,1-1.422-2.251l8.477-19.044a1.306,1.306,0,0,0-.073-1.045,1.288,1.288,0,0,0-.826-.657c-3.986-1.042-14.213-3.816-23.066-7.062-3.793-1.391-6.182-3.4-7.1-5.974a8.432,8.432,0,0,1,.657-6.616l.06-.1,8.33.757,9.031.768,19.791,10.612a7.5,7.5,0,0,1,3.292,9.626l-9.124,20.46A1.679,1.679,0,0,1,537.082,538.571Z" transform="translate(-368.721 -407.938)" fill="#2f2e41"/>
    <path id="Path_862" data-name="Path 862" d="M494.116,414.425a4.169,4.169,0,0,1,5.324-1.039h0a4.169,4.169,0,0,1,1.867,5.04l-2.509,6.968-10.275-3.9Z" transform="translate(-357.669 -356.231)" fill="#de8601"/>
    <path id="Path_863" data-name="Path 863" d="M521.608,448.807a1.853,1.853,0,0,1-1.5.29l-15.82-3.763a1.823,1.823,0,0,1-1.163-.862,1.912,1.912,0,0,1-.181-1.487c1.706-5.914-.531-13.246-3.2-20.288a9.708,9.708,0,0,1,5.308-10.3l.043-.021,8.306.419a9.33,9.33,0,0,1,6.185,5.293c3.2,7.493,4.118,17.107,2.8,29.393a1.866,1.866,0,0,1-.778,1.325Z" transform="translate(-364.618 -355.939)" fill="#6b709d"/>
    <circle id="Ellipse_167" data-name="Ellipse 167" cx="9.169" cy="9.169" r="9.169" transform="translate(132.728 51.748) rotate(-80.783)" fill="#ffb8b8"/>
    <path id="Path_864" data-name="Path 864" d="M544.765,428.342l-6.128-4.367,4.372-5.724,3.947,2.272,15.859-9.149a3.94,3.94,0,0,1,.086-.542,4.106,4.106,0,1,1,3.058,4.937,3.923,3.923,0,0,1-.387-.114l-15.931,12.568A4.085,4.085,0,0,1,544.765,428.342Z" transform="translate(-389.075 -352.985)" fill="#ffb8b8"/>
    <path id="Path_865" data-name="Path 865" d="M526.218,424a4.169,4.169,0,0,1,2.2-4.959h0a4.169,4.169,0,0,1,5.2,1.359l4.272,6.05-9.09,6.181Z" transform="translate(-381.182 -359.862)" fill="#de8601"/>
    <path id="Path_866" data-name="Path 866" d="M475.354,356.894a1.656,1.656,0,0,1-.222,1.936,6.535,6.535,0,0,0-1.18,5.717,17.358,17.358,0,0,0,3.536,6.286,18.99,18.99,0,0,1,3.654,6.229c1.536,5.527-2.59,11.421-7.892,13.611s-11.34,1.5-16.923.177c-4.214-1-8.562-2.461-11.443-5.692s-3.646-8.7-.584-11.763c2.4-2.4,6.138-2.592,9.479-3.194s7.124-2.372,7.571-5.737c.445-3.343-2.687-6.106-3.277-9.426-.734-4.129,2.858-8.063,6.921-9.1s8.35.115,12.286,1.561c3.028,1.112,6.194,2.563,7.347,5.859a4.38,4.38,0,0,1-1.437,5.049c-2.407,1.718-5.5.06-7.858-1.553Z" transform="translate(-328.722 -314.054)" fill="#2f2e41"/>
  </g>
</svg>
