<svg xmlns="http://www.w3.org/2000/svg" width="222.627" height="134.788" viewBox="0 0 222.627 134.788">
  <g id="undraw_multitasking_hqg3_1_" data-name="undraw_multitasking_hqg3 (1)" transform="translate(-0.013)">
    <path id="Path_867" data-name="Path 867" d="M937.729,519.212a4.781,4.781,0,1,0-2.113-8.944l.845,2.314-1.738-1.668a4.763,4.763,0,0,0-1.544,3.3,4.69,4.69,0,0,0,.121,1.317A4.78,4.78,0,0,0,937.729,519.212Z" transform="translate(-748.174 -428.821)" fill="#ff1762"/>
    <path id="Path_868" data-name="Path 868" d="M985.354,522.858c-1.013-1.876.136-4.176,1.458-5.85s2.933-3.415,2.9-5.547c-.049-3.064-3.3-4.874-5.9-6.5a28.781,28.781,0,0,1-5.3-4.26,7.763,7.763,0,0,1-1.628-2.18,8.852,8.852,0,0,1-.489-3.874q.169-6.559.648-13.106" transform="translate(-781.828 -406.923)" fill="none" stroke="#3f3d56" stroke-width="1"/>
    <path id="Path_869" data-name="Path 869" d="M937.729,516.212a4.781,4.781,0,1,0-2.113-8.944l.844,2.314-1.738-1.668a4.763,4.763,0,0,0-1.544,3.3,4.69,4.69,0,0,0,.121,1.316A4.78,4.78,0,0,0,937.729,516.212Z" transform="translate(-748.174 -426.484)" fill="none" stroke="#3f3d56" stroke-width="1"/>
    <path id="Path_870" data-name="Path 870" d="M957.01,468.411a4.775,4.775,0,0,1,2.386-3.916l1.07,2.117-.032-2.563a4.78,4.78,0,1,1-3.424,4.362Z" transform="translate(-766.736 -393.147)" fill="#f80"/>
    <path id="Path_871" data-name="Path 871" d="M957.01,464.411a4.775,4.775,0,0,1,2.386-3.916l1.07,2.117-.032-2.563a4.78,4.78,0,1,1-3.424,4.362Z" transform="translate(-766.736 -390.031)" fill="none" stroke="#3f3d56" stroke-width="1"/>
    <path id="Path_872" data-name="Path 872" d="M990.358,555.129a4.78,4.78,0,0,0,1.516-9.377l.025,1.969-1.082-2.142H990.8a4.78,4.78,0,1,0-.446,9.55Z" transform="translate(-789.165 -456.796)" fill="#f5dfbc"/>
    <path id="Path_873" data-name="Path 873" d="M990.2,551.129a4.78,4.78,0,0,0,1.516-9.377l.025,1.969-1.082-2.142h-.013a4.78,4.78,0,0,0-.446,9.55Z" transform="translate(-789.04 -453.68)" fill="none" stroke="#3f3d56" stroke-width="1"/>
    <path id="Path_874" data-name="Path 874" d="M993.708,605.218a4.778,4.778,0,1,0-.231-3.848l2.985,2.429-3.284-.761a4.737,4.737,0,0,0,.53,2.18Z" transform="translate(-794.911 -497.827)" fill="#ff1762"/>
    <path id="Path_875" data-name="Path 875" d="M993.708,602.218a4.778,4.778,0,1,0-.231-3.848l2.985,2.429-3.284-.761a4.737,4.737,0,0,0,.53,2.18Z" transform="translate(-794.911 -495.49)" fill="none" stroke="#3f3d56" stroke-width="1"/>
    <path id="Path_876" data-name="Path 876" d="M761.481,278.949a10.449,10.449,0,0,1-.838,6.837,23.137,23.137,0,0,1-4.025,5.721,6.037,6.037,0,0,0-1.81,2.97c-.223,1.554.825,2.961,1.529,4.365a10.724,10.724,0,0,1,1.1,3.936,4.218,4.218,0,0,1-.877,3.319,4.9,4.9,0,0,1-3.148,1.117,40.241,40.241,0,0,1-9.37-.226c.87-1.157.543-1.874.461-3.319-.16-2.835-2.223-5.4-2.624-8.212-.318-2.235,1.161-4.286,2.559-6.058l6.411-8.125A24.8,24.8,0,0,0,753.733,277c.545-1.1.647-3.174,2.019-3.542C758.336,272.762,760.978,276.97,761.481,278.949Z" transform="translate(-599.148 -244.79)" fill="#47465a"/>
    <path id="Path_877" data-name="Path 877" d="M664.271,328.855s-4.423,13.046-6.634,13.931,13.268,16.806,13.268,16.806l11.277-5.528.442-10.614-4.422-.221s-.663-4.423,1.548-6.634S664.271,328.855,664.271,328.855Z" transform="translate(-533.399 -287.999)" fill="#fbbebe"/>
    <path id="Path_878" data-name="Path 878" d="M664.271,328.855s-4.423,13.046-6.634,13.931,13.268,16.806,13.268,16.806l11.277-5.528.442-10.614-4.422-.221s-.663-4.423,1.548-6.634S664.271,328.855,664.271,328.855Z" transform="translate(-533.399 -287.999)" opacity="0.1"/>
    <path id="Path_879" data-name="Path 879" d="M614.819,387.575s-9.508-6.413-9.951-11.72c0,0-7.076,4.644-9.287,4.423s-8.182,1.106-8.182,1.99,5.528,25.872,5.528,25.872-3.98,10.614-1.99,13.931,3.1,18.8,3.1,18.8h45.994s-6.192-10.835-2.875-18.575,4.644-40.245,4.644-40.245-2.432-1.769-4.865-1.327-5.307-1.327-7.076-1.548a25.168,25.168,0,0,0-5.778.684Z" transform="translate(-478.86 -324.607)" fill="#f283a7"/>
    <path id="Path_880" data-name="Path 880" d="M346.334,648.447v9.73a6.508,6.508,0,0,1-6.428,6.508l-204.723,2.527a3.738,3.738,0,0,1-3.784-3.738V652.719a3.705,3.705,0,0,1,3.591-3.7l205.392-6.339a5.774,5.774,0,0,1,5.952,5.771Z" transform="translate(-123.694 -532.424)" fill="#47465a"/>
    <path id="Path_881" data-name="Path 881" d="M346.334,700.855v2.638A6.508,6.508,0,0,1,339.906,710l-204.723,2.527a3.738,3.738,0,0,1-3.784-3.738v-.346Z" transform="translate(-123.694 -577.74)" opacity="0.1"/>
    <path id="Path_882" data-name="Path 882" d="M571.325,512.162l-25.9-3.361-46.06,1.68,16.681,5.219Z" transform="translate(-388.93 -395.902)" fill="#f2f2f2"/>
    <path id="Path_883" data-name="Path 883" d="M351.014,509.99v2.653l-25.208,5.749-2.463-.568-.411-.1L304.8,508Z" transform="translate(-237.39 -395.278)" fill="#9493b6"/>
    <path id="Path_884" data-name="Path 884" d="M414.882,517v2.654L389.674,525.4l-2.463-.568-.411-2.749Z" transform="translate(-301.257 -402.288)" opacity="0.1"/>
    <path id="Path_885" data-name="Path 885" d="M454.475,669.393c.442-.221,9.73-1.99,9.73-1.99L447.4,665.855Z" transform="translate(-369.818 -550.48)" fill="#47465a"/>
    <circle id="Ellipse_168" data-name="Ellipse 168" cx="14.373" cy="14.373" r="14.373" transform="translate(128.44 23.387)" fill="#fbbebe"/>
    <path id="Path_886" data-name="Path 886" d="M442.646,608.263s-12.825,5.528-15.921,3.98-12.383-5.528-15.258,2.653c-2.318,6.6,11.215,7.012,16.54,6.925a4.45,4.45,0,0,0,3.361-1.618h0l18.464-6.3S445.742,606.936,442.646,608.263Z" transform="translate(-341.626 -505.492)" fill="#fbbebe"/>
    <path id="Path_887" data-name="Path 887" d="M666.335,562.855l1.548,1.327L653.51,584.525s-2.211.221-1.548-.885Z" transform="translate(-529.05 -470.256)" fill="#47465a"/>
    <path id="Path_888" data-name="Path 888" d="M622.462,414.432l1.548-1.99-.663-.442-1.548,1.769Z" transform="translate(-484.293 -320.507)" fill="#47465a"/>
    <path id="Path_889" data-name="Path 889" d="M511.381,398.355s-7.518,1.327-7.3,7.076a32.931,32.931,0,0,1-3.427,15.368c-1.769,3.1-.442,5.528,0,9.73s-2.211,8.624-.885,10.835-14.373,3.759-14.373,5.97,9.951,6.413,8.182,9.287c-1.273,2.068,7.7-1.415,12.832-3.532a8.96,8.96,0,0,0,5.38-6.294,3.365,3.365,0,0,0,.031-1.783c-.663-1.769,7.187-4.091,7.408-8.513s-1.106-8.845-2.211-13.268S511.381,398.355,511.381,398.355Z" transform="translate(-399.415 -342.131)" fill="#f283a7"/>
    <path id="Path_890" data-name="Path 890" d="M98.994,503.016l64.843.614a2.358,2.358,0,0,1,2.123,1.379L183.434,543.3a2.358,2.358,0,0,1-2.226,3.335l-65.071-2.251a2.358,2.358,0,0,1-2.052-1.352L96.838,506.377a2.358,2.358,0,0,1,2.156-3.362Z" transform="translate(-96.601 -423.649)" fill="#7a799c"/>
    <path id="Path_891" data-name="Path 891" d="M688.646,608.473s-12.825,5.528-15.921,3.98-12.383-5.528-15.258,2.654c-2.318,6.6,11.215,7.012,16.54,6.925a4.45,4.45,0,0,0,3.361-1.618h0l18.8-1.99S691.742,607.146,688.646,608.473Z" transform="translate(-533.229 -505.702)" fill="#fbbebe"/>
    <path id="Path_892" data-name="Path 892" d="M790.671,412.245s3.206-4.312,4.754-.332,1.327,19.459,1.327,19.459,2.654,7.739,1.769,12.825.885,5.749.885,5.749.442,2.211-.885,3.317-2.211,5.97-1.769,6.634-.663,4.865-1.548,4.865a23.165,23.165,0,0,1-2.764-.332s-4.533-8.292-14.042-8.956c0,0,1.548-2.211.663-6.634S790.671,412.245,790.671,412.245Z" transform="translate(-627.625 -351.377)" opacity="0.1"/>
    <path id="Path_893" data-name="Path 893" d="M795.571,403.965a3.938,3.938,0,0,1,5.2,2.543c1.548,3.98,2.985,19.791,2.985,19.791s2.654,7.739,1.769,12.825.884,5.749.884,5.749.442,2.211-.884,3.317-2.211,5.97-1.769,6.634-.663,4.865-1.548,4.865-9.066,1.327-9.066,1.327,1.769-9.951-7.739-10.614c0,0,1.548-2.211.663-6.634S795.571,403.965,795.571,403.965Z" transform="translate(-633.077 -346.304)" fill="#f283a7"/>
    <path id="Path_894" data-name="Path 894" d="M649.149,214.126a16.79,16.79,0,0,0-14.918-1.441,26.36,26.36,0,0,0-7.053,4.48,17.55,17.55,0,0,0-4.467,4.979c-1.607,3-1.6,6.569-1.559,9.971a71.766,71.766,0,0,0,.48,8.868c.554,4.025,1.794,8.01,1.509,12.063s-2.667,8.377-6.648,9.186a53.364,53.364,0,0,0,11.109-.32c2.32-.311,4.756-.842,6.453-2.456a11.557,11.557,0,0,0,2.549-4.4,13.729,13.729,0,0,0,1.151-4.993c-.045-3.576-2.527-6.575-4.148-9.762a6.231,6.231,0,0,1-.838-2.86,2.624,2.624,0,0,1,1.472-2.428c1.151-.457,2.484.225,3.68-.095,1.922-.513,2.421-3.183,4.186-4.1a3.752,3.752,0,0,1,4.071.811,9.744,9.744,0,0,0,1.481,1.3,5.243,5.243,0,0,0,2.6.48c1.667.018,7.354-2.594,8.556-3.749,1.172,6.026,9.884.782,4.884-8.109a20.128,20.128,0,0,0-7.122-7.754,11.314,11.314,0,0,0-10.215-.847" transform="translate(-501.52 -196.65)" fill="#47465a"/>
    <ellipse id="Ellipse_169" data-name="Ellipse 169" cx="1.99" cy="3.538" rx="1.99" ry="3.538" transform="translate(130.762 37.649)" fill="#fbbebe"/>
    <path id="Path_895" data-name="Path 895" d="M773.5,392.374s12.273,1.765,12.936,2.649-.663,6.192-.663,6.192l-8.845,1.548L770.12,401.3Z" transform="translate(-621.177 -337.473)" fill="#fca3c0"/>
    <path id="Path_896" data-name="Path 896" d="M594.3,431.394c-1.848-.319-3.651,1.354-4.608,3.56a20.872,20.872,0,0,0-1.311,7.416,28.382,28.382,0,0,0,.543,7.584c1.193,4.982,4.4,8.5,6.25,13.085a25.657,25.657,0,0,1,1.684,11.437" transform="translate(-479.6 -367.834)" opacity="0.1"/>
    <path id="Path_897" data-name="Path 897" d="M600.3,431.394c-1.848-.319-3.651,1.354-4.608,3.56a20.872,20.872,0,0,0-1.311,7.416,28.387,28.387,0,0,0,.543,7.584c1.193,4.982,4.4,8.5,6.251,13.085a25.657,25.657,0,0,1,1.684,11.437" transform="translate(-484.273 -367.834)" fill="#fca3c0"/>
    <path id="Path_898" data-name="Path 898" d="M846.1,467.678l21.391,8.556,13.37-2.406-1.166-9.57-.171-1.393-22.461-6.952-1.6,1.6Z" transform="translate(-658.994 -354.709)" fill="#dc7797"/>
    <path id="Path_899" data-name="Path 899" d="M901.724,463.616v9.26l22.461,6.952-1.166-9.57Z" transform="translate(-702.319 -360.709)" opacity="0.1"/>
    <path id="Path_900" data-name="Path 900" d="M904.136,616.785l1.514.561,18.054,6.686,1.4.519a.3.3,0,0,0,.269-.032l1.653-1.109,17.2-11.539,1.625-1.09a.3.3,0,0,0-.079-.534l-2.591-.793-18.212-5.579-1.59-.488a.3.3,0,0,0-.255.038l-1.253.844L905.647,615.2l-1.573,1.059a.3.3,0,0,0,.062.527Z" transform="translate(-725.408 -501.816)" fill="#7a799c"/>
    <path id="Path_901" data-name="Path 901" d="M952.982,618.278l-16.115,10.96a.593.593,0,0,1-.537.067l-17.109-6.246A.6.6,0,0,1,919.1,622l15.6-10.179a.593.593,0,0,1,.5-.07l17.626,5.465a.6.6,0,0,1,.159,1.065Z" transform="translate(-737.002 -508.317)" fill="#f2f2f2"/>
    <path id="Path_902" data-name="Path 902" d="M1081.4,630.872v2.417h1.045l1.625-1.09a.3.3,0,0,0-.079-.534Z" transform="translate(-863.625 -523.233)" fill="#de8601"/>
    <path id="Path_903" data-name="Path 903" d="M993.311,693.366v.757l1.4.519a.3.3,0,0,0,.269-.032l1.653-1.109v-.136Z" transform="translate(-795.015 -571.908)" fill="#de8601"/>
    <path id="Path_904" data-name="Path 904" d="M904.136,658.428l1.514.561v-2.147h0l-1.573,1.06a.3.3,0,0,0,.062.527Z" transform="translate(-725.407 -543.459)" fill="#de8601"/>
    <path id="Path_905" data-name="Path 905" d="M985.032,604.27h3.1v-.394l-1.59-.488a.3.3,0,0,0-.255.038Z" transform="translate(-788.566 -501.816)" fill="#de8601"/>
    <circle id="Ellipse_170" data-name="Ellipse 170" cx="0.221" cy="0.221" r="0.221" transform="translate(189.471 107.414)" fill="#f2f2f2"/>
    <rect id="Rectangle_337" data-name="Rectangle 337" width="88.008" height="44.667" transform="translate(7.677 6.139)" fill="#e5e5e5"/>
    <path id="Path_906" data-name="Path 906" d="M104.527,92.279,124.46,59l20.675,33.279" transform="translate(-81.403 -45.564)" fill="#f283a7"/>
    <path id="Path_907" data-name="Path 907" d="M240.78,95.893,244.76,85.5l22.555,27.42H240.669Z" transform="translate(-187.441 -66.204)" fill="#f283a7"/>
    <path id="Path_908" data-name="Path 908" d="M298.463,223.6a5.528,5.528,0,1,0-5.779-9.426" transform="translate(-249.314 -198.046)" fill="#fca3c0"/>
    <rect id="Rectangle_338" data-name="Rectangle 338" width="88.008" height="44.667" transform="translate(12.873 0.5)" fill="none" stroke="#3f3d56" stroke-width="1"/>
    <path id="Path_909" data-name="Path 909" d="M109.527,85.279,129.46,52l20.675,33.279" transform="translate(-85.297 -40.112)" fill="none" stroke="#3f3d56" stroke-width="1"/>
    <path id="Path_910" data-name="Path 910" d="M244.169,86.893l3.98-10.393L270.7,104.362" transform="translate(-190.167 -59.194)" fill="none" stroke="#3f3d56" stroke-width="1"/>
    <path id="Path_911" data-name="Path 911" d="M305.463,209.6a5.528,5.528,0,1,0-5.779-9.426" transform="translate(-254.766 -187.141)" fill="none" stroke="#3f3d56" stroke-width="1"/>
  </g>
</svg>
