<svg xmlns="http://www.w3.org/2000/svg" width="225.298" height="142.381" viewBox="0 0 225.298 142.381">
  <g id="undraw_software_engineer_re_fyew" transform="translate(0 0)">
    <path id="Path_691" data-name="Path 691" d="M884.537,642.8l.219-4.934a15.934,15.934,0,0,1,7.432-1.881c-3.57,2.918-3.124,8.544-5.544,12.469a9.585,9.585,0,0,1-7.029,4.429l-2.987,1.829a16.061,16.061,0,0,1,3.385-13.015,15.516,15.516,0,0,1,2.851-2.649C883.582,640.931,884.537,642.8,884.537,642.8Z" transform="translate(-686.147 -512.584)" fill="#f2f2f2"/>
    <path id="Path_692" data-name="Path 692" d="M347.221,605.446l-7.209-2.182a24.3,24.3,0,0,1,.019-11.693c2.969,6.375,11.451,7.834,16.339,12.889a14.618,14.618,0,0,1,3.9,12.055l1.578,5.1a24.494,24.494,0,0,1-17.959-9.9,23.659,23.659,0,0,1-2.841-5.211C344.1,606.156,347.221,605.446,347.221,605.446Z" transform="translate(-299.837 -480.64)" fill="#f2f2f2"/>
    <path id="Path_693" data-name="Path 693" d="M434.118,497.117a.572.572,0,0,1-.166.4.558.558,0,0,1-.4.163H431.3a.559.559,0,0,1-.561-.561V428.866c0-1.5-.505-2.726-1.126-2.729H289.12c-.623,0-1.126,1.224-1.128,2.729V496.7a.563.563,0,0,1-.508.559c-.455.045-.91.084-1.361.121l-.034,0c-.247.022-.494.039-.741.059h0c-.129-.233-.253-.472-.379-.71a.586.586,0,0,1-.062-.261V425.326c0-.415.017-.834.045-1.246a15.961,15.961,0,0,1,.211-1.69c.474-2.608,1.547-4.373,2.765-4.379H430.805a1.315,1.315,0,0,1,.517.109,2.014,2.014,0,0,1,.637.446,3.949,3.949,0,0,1,.626.856,11.268,11.268,0,0,1,1.182,4.472c0,.017,0,.034,0,.051.039.455.059.918.056,1.381l.039,6.016.025,3.587.076,11.256.028,4Z" transform="translate(-260.705 -355.8)" fill="#747474"/>
    <path id="Path_694" data-name="Path 694" d="M592.072,343.877H577.754a.764.764,0,0,0-.763.765V367.26h15.845V344.642A.764.764,0,0,0,592.072,343.877Zm-7.111,12.851a1.7,1.7,0,0,1-1.691-1.691v-2.609a1.691,1.691,0,0,1,3.381,0v2.609A1.7,1.7,0,0,1,584.962,356.728Z" transform="translate(-470.801 -302.476)" fill="#ccc"/>
    <path id="Path_695" data-name="Path 695" d="M576.817,424.6v2.182a.428.428,0,0,0,.427.427h15.09a.429.429,0,0,0,.427-.427V424.6Z" transform="translate(-470.676 -360.538)" fill="#3f3d56"/>
    <path id="Path_696" data-name="Path 696" d="M553.267,218.133h-61.2a1.987,1.987,0,0,0-1.984,1.984v41.3a1.986,1.986,0,0,0,1.984,1.984h61.2a1.986,1.986,0,0,0,1.984-1.984v-41.3A1.987,1.987,0,0,0,553.267,218.133Z" transform="translate(-408.287 -212.029)" fill="#e6e6e6"/>
    <path id="Path_697" data-name="Path 697" d="M556.43,223.236H496.25a1.063,1.063,0,0,0-1.061,1.063v40.276a1.063,1.063,0,0,0,1.061,1.061H556.43a1.063,1.063,0,0,0,1.061-1.061V224.3a1.063,1.063,0,0,0-1.061-1.063Z" transform="translate(-411.961 -215.7)" fill="#fff"/>
    <path id="Path_698" data-name="Path 698" d="M578.164,426.461h-35.8a.659.659,0,0,1-.644-.794l.556-2.639a.661.661,0,0,1,.644-.523h34.693a.661.661,0,0,1,.644.523l.556,2.639a.659.659,0,0,1-.645.794Z" transform="translate(-445.417 -359.032)" fill="#ccc"/>
    <rect id="Rectangle_225" data-name="Rectangle 225" width="1.103" height="0.662" rx="0.331" transform="translate(97.753 63.947)" fill="#e6e6e6"/>
    <rect id="Rectangle_226" data-name="Rectangle 226" width="1.103" height="0.662" rx="0.331" transform="translate(99.958 63.947)" fill="#e6e6e6"/>
    <rect id="Rectangle_227" data-name="Rectangle 227" width="1.103" height="0.662" rx="0.331" transform="translate(102.163 63.947)" fill="#e6e6e6"/>
    <rect id="Rectangle_228" data-name="Rectangle 228" width="1.103" height="0.662" rx="0.331" transform="translate(104.369 63.947)" fill="#e6e6e6"/>
    <rect id="Rectangle_229" data-name="Rectangle 229" width="1.103" height="0.662" rx="0.331" transform="translate(106.574 63.947)" fill="#e6e6e6"/>
    <rect id="Rectangle_230" data-name="Rectangle 230" width="1.103" height="0.662" rx="0.331" transform="translate(108.78 63.947)" fill="#e6e6e6"/>
    <rect id="Rectangle_231" data-name="Rectangle 231" width="1.103" height="0.662" rx="0.331" transform="translate(110.985 63.947)" fill="#e6e6e6"/>
    <rect id="Rectangle_232" data-name="Rectangle 232" width="1.103" height="0.662" rx="0.331" transform="translate(113.191 63.947)" fill="#e6e6e6"/>
    <rect id="Rectangle_233" data-name="Rectangle 233" width="1.103" height="0.662" rx="0.331" transform="translate(115.396 63.947)" fill="#e6e6e6"/>
    <rect id="Rectangle_234" data-name="Rectangle 234" width="1.103" height="0.662" rx="0.331" transform="translate(117.602 63.947)" fill="#e6e6e6"/>
    <rect id="Rectangle_235" data-name="Rectangle 235" width="1.103" height="0.662" rx="0.331" transform="translate(119.807 63.947)" fill="#e6e6e6"/>
    <rect id="Rectangle_236" data-name="Rectangle 236" width="1.103" height="0.662" rx="0.331" transform="translate(122.013 63.947)" fill="#e6e6e6"/>
    <rect id="Rectangle_237" data-name="Rectangle 237" width="1.103" height="0.662" rx="0.331" transform="translate(124.218 63.947)" fill="#e6e6e6"/>
    <rect id="Rectangle_238" data-name="Rectangle 238" width="1.103" height="0.662" rx="0.331" transform="translate(126.424 63.947)" fill="#e6e6e6"/>
    <rect id="Rectangle_239" data-name="Rectangle 239" width="1.103" height="0.662" rx="0.331" transform="translate(128.629 63.947)" fill="#e6e6e6"/>
    <rect id="Rectangle_240" data-name="Rectangle 240" width="1.103" height="0.662" rx="0.331" transform="translate(130.834 63.947)" fill="#e6e6e6"/>
    <rect id="Rectangle_241" data-name="Rectangle 241" width="1.103" height="0.662" rx="0.331" transform="translate(97.726 65.05)" fill="#e6e6e6"/>
    <rect id="Rectangle_242" data-name="Rectangle 242" width="1.103" height="0.662" rx="0.331" transform="translate(99.932 65.05)" fill="#e6e6e6"/>
    <rect id="Rectangle_243" data-name="Rectangle 243" width="1.103" height="0.662" rx="0.331" transform="translate(102.137 65.05)" fill="#e6e6e6"/>
    <rect id="Rectangle_244" data-name="Rectangle 244" width="1.103" height="0.662" rx="0.331" transform="translate(104.343 65.05)" fill="#e6e6e6"/>
    <rect id="Rectangle_245" data-name="Rectangle 245" width="1.103" height="0.662" rx="0.331" transform="translate(106.548 65.05)" fill="#e6e6e6"/>
    <rect id="Rectangle_246" data-name="Rectangle 246" width="1.103" height="0.662" rx="0.331" transform="translate(108.754 65.05)" fill="#e6e6e6"/>
    <rect id="Rectangle_247" data-name="Rectangle 247" width="1.103" height="0.662" rx="0.331" transform="translate(110.959 65.05)" fill="#e6e6e6"/>
    <rect id="Rectangle_248" data-name="Rectangle 248" width="1.103" height="0.662" rx="0.331" transform="translate(113.165 65.05)" fill="#e6e6e6"/>
    <rect id="Rectangle_249" data-name="Rectangle 249" width="1.103" height="0.662" rx="0.331" transform="translate(115.37 65.05)" fill="#e6e6e6"/>
    <rect id="Rectangle_250" data-name="Rectangle 250" width="1.103" height="0.662" rx="0.331" transform="translate(117.576 65.05)" fill="#e6e6e6"/>
    <rect id="Rectangle_251" data-name="Rectangle 251" width="1.103" height="0.662" rx="0.331" transform="translate(119.781 65.05)" fill="#e6e6e6"/>
    <rect id="Rectangle_252" data-name="Rectangle 252" width="1.103" height="0.662" rx="0.331" transform="translate(121.986 65.05)" fill="#e6e6e6"/>
    <rect id="Rectangle_253" data-name="Rectangle 253" width="1.103" height="0.662" rx="0.331" transform="translate(124.192 65.05)" fill="#e6e6e6"/>
    <rect id="Rectangle_254" data-name="Rectangle 254" width="1.103" height="0.662" rx="0.331" transform="translate(126.397 65.05)" fill="#e6e6e6"/>
    <rect id="Rectangle_255" data-name="Rectangle 255" width="1.103" height="0.662" rx="0.331" transform="translate(128.603 65.05)" fill="#e6e6e6"/>
    <rect id="Rectangle_256" data-name="Rectangle 256" width="1.103" height="0.662" rx="0.331" transform="translate(130.808 65.05)" fill="#e6e6e6"/>
    <rect id="Rectangle_257" data-name="Rectangle 257" width="8.822" height="0.662" rx="0.331" transform="translate(108.313 66.374)" fill="#e6e6e6"/>
    <path id="Path_699" data-name="Path 699" d="M557.714,241.857H501.4a.224.224,0,1,1,0-.448h56.311a.224.224,0,1,1,0,.448Z" transform="translate(-416.27 -228.772)" fill="#cacaca"/>
    <ellipse id="Ellipse_100" data-name="Ellipse 100" cx="1.312" cy="1.342" rx="1.312" ry="1.342" transform="translate(87.654 8.811)" fill="#ccc"/>
    <ellipse id="Ellipse_101" data-name="Ellipse 101" cx="1.312" cy="1.342" rx="1.312" ry="1.342" transform="translate(92.187 8.811)" fill="#ccc"/>
    <ellipse id="Ellipse_102" data-name="Ellipse 102" cx="1.312" cy="1.342" rx="1.312" ry="1.342" transform="translate(96.721 8.811)" fill="#ccc"/>
    <path id="Path_700" data-name="Path 700" d="M683.978,228.962h-3.221a.244.244,0,1,0,0,.488h3.22a.244.244,0,0,0,0-.488Z" transform="translate(-545.263 -219.819)" fill="#ccc"/>
    <path id="Path_701" data-name="Path 701" d="M683.978,232.223h-3.221a.244.244,0,1,0,0,.488h3.22a.244.244,0,0,0,0-.488Z" transform="translate(-545.263 -222.164)" fill="#ccc"/>
    <path id="Path_702" data-name="Path 702" d="M683.978,235.479h-3.221a.244.244,0,1,0,0,.488h3.22a.244.244,0,0,0,0-.488Z" transform="translate(-545.263 -224.506)" fill="#ccc"/>
    <path id="Path_703" data-name="Path 703" d="M402.909,26.381l-.182-.531,23.259-12.085.182.531Z" transform="translate(-289.678 -9.901)" fill="#3f3d56"/>
    <path id="Path_704" data-name="Path 704" d="M652.909,106.28l-.182-.531,14-12.024.182.531Z" transform="translate(-469.501 -67.415)" fill="#3f3d56"/>
    <path id="Path_705" data-name="Path 705" d="M497.986,116.094l-23.259-12.085.182-.531,23.259,12.085Z" transform="translate(-341.467 -74.431)" fill="#3f3d56"/>
    <path id="Path_706" data-name="Path 706" d="M565.06,60.182,551.425,37.8l.431-.36,13.635,22.385Z" transform="translate(-396.635 -26.927)" fill="#3f3d56"/>
    <path id="Path_707" data-name="Path 707" d="M603.88,12.959,590.6,12.9v-.561l13.279.061Z" transform="translate(-424.814 -8.873)" fill="#3f3d56"/>
    <path id="Path_708" data-name="Path 708" d="M874.83,204.648H859.952a3.649,3.649,0,1,1,0-7.3H874.83a3.649,3.649,0,1,1,0,7.3Z" transform="translate(-671.707 -197.08)" fill="#de8601"/>
    <path id="Path_709" data-name="Path 709" d="M940.83,280.648H925.952a3.649,3.649,0,1,1,0-7.3H940.83a3.649,3.649,0,0,1,0,7.3Z" transform="translate(-719.181 -251.747)" fill="#6b709d"/>
    <path id="Path_710" data-name="Path 710" d="M669.88,154.958,656.6,154.9v-.561l13.279.061Z" transform="translate(-472.287 -111.012)" fill="#3f3d56"/>
    <path id="Path_711" data-name="Path 711" d="M940.83,346.648H925.952a3.649,3.649,0,1,1,0-7.3H940.83a3.649,3.649,0,0,1,0,7.3Z" transform="translate(-719.181 -299.22)" fill="#747474"/>
    <path id="Path_712" data-name="Path 712" d="M785.83,337.689H770.952a3.649,3.649,0,1,1,0-7.3H785.83a3.649,3.649,0,1,1,0,7.3Z" transform="translate(-607.69 -292.776)" fill="#191718"/>
    <path id="Path_713" data-name="Path 713" d="M713.83,203.689H698.952a3.649,3.649,0,0,1,0-7.3H713.83a3.649,3.649,0,0,1,0,7.3Z" transform="translate(-555.902 -196.391)" fill="#ff1762"/>
    <path id="Path_714" data-name="Path 714" d="M459.062,445.571H442.22a2.246,2.246,0,0,0,0,4.491H448.4v17.4h4.491v-17.4h6.176a2.246,2.246,0,0,0,0-4.491Z" transform="translate(-372.246 -375.624)" fill="#3f3d56"/>
    <path id="Path_715" data-name="Path 715" d="M335.965,365.857H290.916a18.192,18.192,0,0,1-17.942-15.617l-1.595-5.866a131.674,131.674,0,0,0-14.928-34.5c-3.017-4.9-4.57-9.642-1.043-14.208l.089-.115c2.829-3.682,16.908-4.479,21.5-4.634q.272-.009.546-.009h28.02q.274,0,.546.009a13.712,13.712,0,0,1,11.856,7.557,14.128,14.128,0,0,1-.8,14.465c-9.843,14.785-12.856,24.056-9.771,30.06,2.984,5.807,12.132,8.776,28.789,9.343a6.576,6.576,0,0,1,6.545,6.812,6.414,6.414,0,0,1-6.331,6.694Q336.181,365.857,335.965,365.857Z" transform="translate(-238.032 -264.376)" fill="#3f3d56"/>
    <path id="Path_716" data-name="Path 716" d="M408.6,591.8h16.843a2.246,2.246,0,1,0,0-4.491h-6.176v-37.9h-4.491v37.9H408.6a2.246,2.246,0,0,0,0,4.491Z" transform="translate(-348.064 -450.313)" fill="#3f3d56"/>
    <path id="Path_717" data-name="Path 717" d="M269.963,420.458l2.9,1.576,7.681-10.62-4.282-2.326Z" transform="translate(-194.182 -294.253)" fill="#a0616a"/>
    <path id="Path_718" data-name="Path 718" d="M464.384,632.5l5.267,1.649-.838,2.207,3.612,5.242a1.475,1.475,0,0,1-1.738,2.215l-6.132-2.33-.228-2.584-1.242,2.026-2.312-.878Z" transform="translate(-387.207 -510.081)" fill="#2f2e41"/>
    <path id="Path_719" data-name="Path 719" d="M448.59,257.225a3.26,3.26,0,0,1-3.329,3.729l-11.187,23.8-3.509-4.893,11.516-22.508a3.278,3.278,0,0,1,6.509-.132Z" transform="translate(-365.478 -238.115)" fill="#a0616a"/>
    <path id="Path_720" data-name="Path 720" d="M362.516,314.043a4.826,4.826,0,0,0,4.4,4.974c4.7.816,17.275-7.134,19.339-8.355s5.912-16.579,5.912-16.579l-3.346-5.66c-4.131,5.226-7.376,10.045-7.573,13.466Z" transform="translate(-316.528 -262.589)" fill="#b75474"/>
    <path id="Path_721" data-name="Path 721" d="M381.867,423.017l1.016,4.364s.01,4.024.723,4.766,16.269-.744,16.269-.744a55.643,55.643,0,0,1-1.628-11.391Z" transform="translate(-330.45 -357.239)" fill="#a0616a"/>
    <path id="Path_722" data-name="Path 722" d="M414.778,502.156l-5.614-3.088c-.107-7.305,4.287-17.192,9.5-27.547-11.656,2-22.652,2.647-32.163.222a6.148,6.148,0,0,1-4.4-7.427q.055-.231.128-.457c1.138-3.473-1.414-5.65.934-9.47,6.175-2.109,12.04-2.7,17.4-.842l3.361,7.431,16.658-2.156a6.142,6.142,0,0,1,6.833,5.416q.034.271.044.545C424.1,480.574,420.32,494.783,414.778,502.156Z" transform="translate(-330.488 -380.558)" fill="#2f2e41"/>
    <path id="Path_723" data-name="Path 723" d="M364.223,331.318l6.417-.379a1.3,1.3,0,0,1,1.281.8l1.814,4.4,7.537,6.229a15.628,15.628,0,0,1,2.991,8.7c.007,4.9,1.059,16.256,1.059,16.256s-4.355-6.13-7.043-4.5c-.457.277-.618.845-1.1,1.131-.239.143-.791,0-1.032.147-3.7,2.2-7.567,4.347-7.928,3.971-.709-.74-1.568-4.519-1.568-4.519l-5.874-21.583a7.994,7.994,0,0,1,1.137-6.726,2.415,2.415,0,0,1,1.24-1.079C364.052,333.978,363.575,331.967,364.223,331.318Z" transform="translate(-315.067 -293.168)" fill="#ff6597"/>
    <path id="Path_724" data-name="Path 724" d="M350.556,447.668l2.709-1.883-6.137-11.578-4,2.78Z" transform="translate(-246.81 -312.321)" fill="#a0616a"/>
    <path id="Path_725" data-name="Path 725" d="M439.135,513.39l-4.245,3.795c-6.75-7.522-11.854-18.071-16.178-30.051a72.369,72.369,0,0,1-27.336-15.025c-2.531-2.141-4.428-4.892-2.269-7.5q.151-.183.316-.354c2.548-2.619,9.011-2.12,12.8-4.519l8.455,9.038-.532,2.423,15.882,5.38a6.134,6.134,0,0,1,3.743,7.865q-.089.258-.2.508Z" transform="translate(-334.981 -385.811)" fill="#2f2e41"/>
    <path id="Path_726" data-name="Path 726" d="M562.654,667.081l4.336-3.415,1.347,1.938,6.366-.019a1.474,1.474,0,0,1,.846,2.685l-5.386,3.744-2.261-1.272.97,2.169-2.031,1.412Z" transform="translate(-460.488 -532.497)" fill="#2f2e41"/>
    <path id="Path_727" data-name="Path 727" d="M366.61,456.463a3.26,3.26,0,0,1-1.457-4.782l-14.528-21.924,6-.456,13.25,21.532a3.278,3.278,0,0,1-3.269,5.63Z" transform="translate(-307.978 -363.92)" fill="#a0616a"/>
    <path id="Path_728" data-name="Path 728" d="M353.612,351.165a4.826,4.826,0,0,0-6.537,1.178c-3.14,3.595-2.878,18.467-2.907,20.865-.009.751,1.075,2.372,2.569,4.243.671.84,1.424,1.731,2.2,2.617.448.513.062,1.579.512,2.078s1.73.422,2.156.882c2.019,2.183,3.66,3.844,3.66,3.844l6.574.081c.074-4.887-3.273-9.25-7.572-13.466Z" transform="translate(-303.333 -307.147)" fill="#b75474"/>
    <path id="Path_729" data-name="Path 729" d="M344.1,264.012a4.832,4.832,0,0,1-2.037,1.023,1.657,1.657,0,0,1-1.859-.994c-.257-.9.558-1.725,1.291-2.311l2.323-1.86a5.618,5.618,0,0,1,1.424-.921,1.9,1.9,0,0,1,1.643.055,1.765,1.765,0,0,1,.776,1.536,3.281,3.281,0,0,1-.575,1.683,5.92,5.92,0,0,1-3.843,2.613" transform="translate(-300.447 -241.272)" fill="#2f2e41"/>
    <path id="Path_730" data-name="Path 730" d="M368.062,449.571H351.22a2.246,2.246,0,0,0,0,4.491H357.4v17.4h4.491v-17.4h6.176a2.246,2.246,0,0,0,0-4.491Z" transform="translate(-306.79 -378.501)" fill="#3f3d56"/>
    <path id="Path_731" data-name="Path 731" d="M311.2,253.138c.068-1.684-1.726-3.017-3.408-2.912a5.665,5.665,0,0,0-4.08,2.677,36.283,36.283,0,0,0-2.277,4.5,8.139,8.139,0,0,1-3.243,3.764,3.747,3.747,0,0,1-4.6-.691,3.708,3.708,0,0,0-.381,3.331,5.077,5.077,0,0,0,2.228,2.586,5.838,5.838,0,0,0,1.29.567,5.254,5.254,0,0,1,.776-1.4,4.338,4.338,0,0,0-.167,1.546,5.162,5.162,0,0,0,2.1-.033,4.476,4.476,0,0,0,3.105-2.532c.631-1.493.309-3.195.444-4.809s1.107-3.459,2.727-3.485c1.234-.02,1.071.081,1.853,1.036" transform="translate(-266.511 -235.11)" fill="#2f2e41"/>
    <path id="Path_732" data-name="Path 732" d="M358.961,273.431a7.3,7.3,0,0,1-7.3,7.3c-4.031,0-7.86-4.671-7.86-8.7s3.829-5.895,7.86-5.895A7.3,7.3,0,0,1,358.961,273.431Z" transform="translate(-303.071 -246.555)" fill="#2f2e41"/>
    <circle id="Ellipse_103" data-name="Ellipse 103" cx="6.963" cy="6.963" r="6.963" transform="translate(42.575 23.374) rotate(-11.564)" fill="#a0616a"/>
    <path id="Path_733" data-name="Path 733" d="M364.049,277.87c-2.061.563-4.142,1.153-4.946,0a6.338,6.338,0,0,0-.873-2.15,8.7,8.7,0,0,1-.514,2.15,13.614,13.614,0,0,1-7.141,0,3.987,3.987,0,0,0-.491,1.7,2.4,2.4,0,0,0-.326-.171.539.539,0,0,0-.444-.039.383.383,0,0,0-.182.284,1.059,1.059,0,0,0,.017.351,2.667,2.667,0,0,0,.351,1.14,1.039,1.039,0,0,0,.7.452c.292,1.642,2.616,3.863,2.616,3.863-7.018.281-7.018-4.48-7.018-8.983l.842-1.684h2.807v-3.649h7.86A6.739,6.739,0,0,1,364.049,277.87Z" transform="translate(-304.509 -250.152)" fill="#2f2e41"/>
    <path id="Path_734" data-name="Path 734" d="M322.193,701.589l-123.161.086a.334.334,0,1,1,0-.668l123.161-.086a.334.334,0,0,1,0,.668Z" transform="translate(-198.697 -559.294)" fill="#6b709d"/>
    <path id="Path_735" data-name="Path 735" d="M767.682,701.589l-63.651.086a.334.334,0,0,1,0-.668l63.651-.086a.334.334,0,0,1,0,.668Z" transform="translate(-561.94 -559.294)" fill="#6b709d"/>
    <path id="Path_736" data-name="Path 736" d="M577.113,283.97H552.985a3.8,3.8,0,0,1-3.8-3.8V264.187a3.8,3.8,0,0,1,3.8-3.8h24.128a3.8,3.8,0,0,1,3.8,3.8v15.987A3.8,3.8,0,0,1,577.113,283.97Zm-24.128-23.018a3.238,3.238,0,0,0-3.235,3.235v15.987a3.238,3.238,0,0,0,3.235,3.235h24.128a3.238,3.238,0,0,0,3.235-3.235V264.187a3.238,3.238,0,0,0-3.235-3.235Z" transform="translate(-450.803 -242.425)" fill="#e6e6e6"/>
    <rect id="Rectangle_258" data-name="Rectangle 258" width="6.454" height="0.561" transform="translate(102.877 23.018)" fill="#e6e6e6"/>
    <rect id="Rectangle_259" data-name="Rectangle 259" width="14.316" height="0.561" transform="translate(102.877 25.264)" fill="#e6e6e6"/>
    <rect id="Rectangle_260" data-name="Rectangle 260" width="14.316" height="0.561" transform="translate(102.877 27.229)" fill="#e6e6e6"/>
    <rect id="Rectangle_261" data-name="Rectangle 261" width="18.246" height="0.561" transform="translate(102.877 29.194)" fill="#e6e6e6"/>
    <rect id="Rectangle_262" data-name="Rectangle 262" width="9.544" height="0.561" transform="translate(102.877 31.159)" fill="#e6e6e6"/>
    <rect id="Rectangle_263" data-name="Rectangle 263" width="17.404" height="0.561" transform="translate(102.877 33.124)" fill="#e6e6e6"/>
    <rect id="Rectangle_264" data-name="Rectangle 264" width="3.088" height="0.561" transform="translate(102.877 35.089)" fill="#e6e6e6"/>
  </g>
</svg>
