<svg xmlns="http://www.w3.org/2000/svg" width="290.366" height="149.695" viewBox="0 0 290.366 149.695">
  <g id="undraw_teamwork_hpdk_1_" data-name="undraw_teamwork_hpdk (1)" transform="translate(0 0)">
    <path id="Path_737" data-name="Path 737" d="M441.644,679.423h-289.6a.386.386,0,0,1,0-.771h289.6a.386.386,0,1,1,0,.771Z" transform="translate(-151.662 -529.76)" fill="#3f3d56"/>
    <circle id="Ellipse_104" data-name="Ellipse 104" cx="2.094" cy="2.094" r="2.094" transform="translate(88.691 14.415)" fill="#f2f2f2"/>
    <circle id="Ellipse_105" data-name="Ellipse 105" cx="2.094" cy="2.094" r="2.094" transform="translate(80.345 14.415)" fill="#f2f2f2"/>
    <circle id="Ellipse_106" data-name="Ellipse 106" cx="2.094" cy="2.094" r="2.094" transform="translate(71.999 14.415)" fill="#f2f2f2"/>
    <circle id="Ellipse_107" data-name="Ellipse 107" cx="2.094" cy="2.094" r="2.094" transform="translate(63.653 14.415)" fill="#f2f2f2"/>
    <circle id="Ellipse_108" data-name="Ellipse 108" cx="2.094" cy="2.094" r="2.094" transform="translate(88.691 23.158)" fill="#f2f2f2"/>
    <circle id="Ellipse_109" data-name="Ellipse 109" cx="2.094" cy="2.094" r="2.094" transform="translate(80.345 23.158)" fill="#f2f2f2"/>
    <circle id="Ellipse_110" data-name="Ellipse 110" cx="2.094" cy="2.094" r="2.094" transform="translate(71.999 23.158)" fill="#f2f2f2"/>
    <circle id="Ellipse_111" data-name="Ellipse 111" cx="2.094" cy="2.094" r="2.094" transform="translate(63.653 23.158)" fill="#f2f2f2"/>
    <circle id="Ellipse_112" data-name="Ellipse 112" cx="2.094" cy="2.094" r="2.094" transform="translate(88.691 31.901)" fill="#f2f2f2"/>
    <circle id="Ellipse_113" data-name="Ellipse 113" cx="2.094" cy="2.094" r="2.094" transform="translate(80.345 31.901)" fill="#f2f2f2"/>
    <circle id="Ellipse_114" data-name="Ellipse 114" cx="2.094" cy="2.094" r="2.094" transform="translate(71.999 31.901)" fill="#f2f2f2"/>
    <circle id="Ellipse_115" data-name="Ellipse 115" cx="2.094" cy="2.094" r="2.094" transform="translate(63.653 31.901)" fill="#f2f2f2"/>
    <circle id="Ellipse_116" data-name="Ellipse 116" cx="2.094" cy="2.094" r="2.094" transform="translate(88.691 40.645)" fill="#f2f2f2"/>
    <circle id="Ellipse_117" data-name="Ellipse 117" cx="2.094" cy="2.094" r="2.094" transform="translate(80.345 40.645)" fill="#f2f2f2"/>
    <circle id="Ellipse_118" data-name="Ellipse 118" cx="2.094" cy="2.094" r="2.094" transform="translate(71.999 40.645)" fill="#f2f2f2"/>
    <circle id="Ellipse_119" data-name="Ellipse 119" cx="2.094" cy="2.094" r="2.094" transform="translate(63.653 40.645)" fill="#f2f2f2"/>
    <circle id="Ellipse_120" data-name="Ellipse 120" cx="2.094" cy="2.094" r="2.094" transform="translate(88.691 49.388)" fill="#f2f2f2"/>
    <circle id="Ellipse_121" data-name="Ellipse 121" cx="2.094" cy="2.094" r="2.094" transform="translate(80.345 49.388)" fill="#f2f2f2"/>
    <circle id="Ellipse_122" data-name="Ellipse 122" cx="2.094" cy="2.094" r="2.094" transform="translate(71.999 49.388)" fill="#f2f2f2"/>
    <circle id="Ellipse_123" data-name="Ellipse 123" cx="2.094" cy="2.094" r="2.094" transform="translate(63.653 49.388)" fill="#f2f2f2"/>
    <circle id="Ellipse_124" data-name="Ellipse 124" cx="2.094" cy="2.094" r="2.094" transform="translate(88.691 58.131)" fill="#f2f2f2"/>
    <circle id="Ellipse_125" data-name="Ellipse 125" cx="2.094" cy="2.094" r="2.094" transform="translate(80.345 58.131)" fill="#f2f2f2"/>
    <circle id="Ellipse_126" data-name="Ellipse 126" cx="2.094" cy="2.094" r="2.094" transform="translate(71.999 58.131)" fill="#f2f2f2"/>
    <circle id="Ellipse_127" data-name="Ellipse 127" cx="2.094" cy="2.094" r="2.094" transform="translate(63.653 58.131)" fill="#f2f2f2"/>
    <path id="Path_738" data-name="Path 738" d="M375.19,572.812v.648a4.051,4.051,0,0,0,4.048,4.048h29.144a4.049,4.049,0,0,0,4.048-4.048v-.648a4.018,4.018,0,0,0-.939-2.591,4.164,4.164,0,0,0-.683-.648s-16.023-.363-16.023-.81H379.238A4.053,4.053,0,0,0,375.19,572.812Z" transform="translate(-302.806 -455.457)" fill="#ccc"/>
    <rect id="Rectangle_265" data-name="Rectangle 265" width="4.21" height="27.201" transform="translate(89.134 121.889)" fill="#ccc"/>
    <path id="Path_739" data-name="Path 739" d="M417.411,670.33c0,.455-6.379.176-14.248.176s-14.248.279-14.248-.176,6.379-4.062,14.248-4.062S417.411,669.875,417.411,670.33Z" transform="translate(-312.086 -521.387)" fill="#ccc"/>
    <path id="Path_740" data-name="Path 740" d="M423.649,505.248a3.479,3.479,0,0,0-1.233-5.19l-8.922-30.4-6.794,3.328,10.907,28.838a3.5,3.5,0,0,0,6.043,3.426Z" transform="translate(-324.112 -388.443)" fill="#a0616a"/>
    <path id="Path_741" data-name="Path 741" d="M411.73,459.2l-7.6,2.058a1.56,1.56,0,0,1-1.957-1.323l-.919-7.8a4.332,4.332,0,0,1,8.37-2.239l3.133,7.175a1.56,1.56,0,0,1-1.022,2.129Z" transform="translate(-320.327 -372.907)" fill="#de8601"/>
    <path id="Path_742" data-name="Path 742" d="M313.515,428.6h3.97l1.889-10.3h-5.86Z" transform="translate(-211.99 -282.846)" fill="#a0616a"/>
    <path id="Path_743" data-name="Path 743" d="M462.051,664.961h7.819a4.982,4.982,0,0,1,4.983,4.983v.162h-12.8Z" transform="translate(-361.539 -520.503)" fill="#2f2e41"/>
    <path id="Path_744" data-name="Path 744" d="M423.4,573.632q-.069,0-.139-.007l-5.494-.4a1.457,1.457,0,0,1-1.234-1.952l7.353-16.52a1.133,1.133,0,0,0-.064-.906,1.118,1.118,0,0,0-.716-.57c-3.458-.9-12.329-3.31-20.008-6.126-3.29-1.206-5.362-2.95-6.159-5.182a7.314,7.314,0,0,1,.57-5.739l.052-.088,7.226.657,7.834.666,17.167,9.206a6.5,6.5,0,0,1,2.856,8.35l-7.915,17.748A1.456,1.456,0,0,1,423.4,573.632Z" transform="translate(-317.266 -433.399)" fill="#2f2e41"/>
    <circle id="Ellipse_128" data-name="Ellipse 128" cx="7.953" cy="7.953" r="7.953" transform="translate(80.823 54.809)" fill="#a0616a"/>
    <path id="Path_745" data-name="Path 745" d="M306.515,427.6h3.97l1.889-10.3h-5.86Z" transform="translate(-207.257 -282.17)" fill="#a0616a"/>
    <path id="Path_746" data-name="Path 746" d="M455.051,663.961h7.819a4.982,4.982,0,0,1,4.983,4.983v.162h-12.8Z" transform="translate(-356.806 -519.827)" fill="#2f2e41"/>
    <path id="Path_747" data-name="Path 747" d="M416.4,576.632q-.069,0-.139-.007l-5.494-.4a1.457,1.457,0,0,1-1.234-1.952l7.353-16.52a1.133,1.133,0,0,0-.064-.906,1.117,1.117,0,0,0-.716-.57c-3.458-.9-12.329-3.31-20.008-6.126-3.29-1.206-5.362-2.95-6.159-5.182a7.314,7.314,0,0,1,.57-5.739l.052-.088,7.226.657,7.834.666,17.167,9.206a6.5,6.5,0,0,1,2.856,8.35l-7.915,17.748A1.456,1.456,0,0,1,416.4,576.632Z" transform="translate(-312.533 -435.427)" fill="#2f2e41"/>
    <path id="Path_748" data-name="Path 748" d="M406,445.082l-8.419-2.914s-5.285,4.061-2.746,14.135a24.939,24.939,0,0,1-1.1,15.647,16.122,16.122,0,0,1-.848,1.791s9.391,11.334,18.134,2.914l-3.4-16.353S412.964,449.454,406,445.082Z" transform="translate(-314.772 -369.856)" fill="#2f2e41"/>
    <path id="Path_749" data-name="Path 749" d="M402.3,394.046c-1.132-1.694-2.025-4.044-.779-5.656,1.23-1.591,3.657-1.357,5.541-2.061a6.273,6.273,0,0,0,3.672-6.825,8.1,8.1,0,0,0-5.331-5.986,11.544,11.544,0,0,0-8.2.447,12.527,12.527,0,0,0-7.058,7.149,9.631,9.631,0,0,0,1.842,9.66c2.546,2.681,6.543,3.4,10.24,3.352" transform="translate(-312.539 -323.059)" fill="#2f2e41"/>
    <path id="Path_750" data-name="Path 750" d="M329.2,384.394c-1.426,1.161-3.6.645-5.134-.374s-2.774-2.47-4.43-3.269c-2.921-1.409-6.452-.472-9.294,1.088s-5.362,3.716-8.365,4.94-6.834,1.285-9.108-1.027a8.333,8.333,0,0,0,12.211,9.835c3.29-2,5.107-6.206,8.8-7.312,2.042-.612,4.234-.119,6.3.415s4.215,1.111,6.3.656,4.031-2.326,3.766-4.441Z" transform="translate(-246.834 -327.86)" fill="#2f2e41"/>
    <path id="Path_751" data-name="Path 751" d="M484.65,587.965a54.244,54.244,0,0,1,0-16.507,1.393,1.393,0,0,1,1.372-1.168h12.912a1.375,1.375,0,0,1,1.087.527,1.4,1.4,0,0,1,.261,1.2,33.136,33.136,0,0,0,0,15.39,1.4,1.4,0,0,1-.261,1.2,1.375,1.375,0,0,1-1.087.527H486.022A1.393,1.393,0,0,1,484.65,587.965Z" transform="translate(-376.393 -456.489)" fill="#6b709d"/>
    <path id="Path_752" data-name="Path 752" d="M501.632,590.117h-6.775a.973.973,0,0,1-.971-.971v-.38a.973.973,0,0,1,.971-.971h6.776a.973.973,0,0,1,.971.971v.38a.973.973,0,0,1-.972.971Z" transform="translate(-383.064 -468.325)" fill="#fff"/>
    <path id="Path_753" data-name="Path 753" d="M501.632,602.461h-6.775a.973.973,0,0,1-.971-.971v-.38a.973.973,0,0,1,.971-.971h6.776a.973.973,0,0,1,.971.971v.38a.972.972,0,0,1-.972.971Z" transform="translate(-383.064 -476.672)" fill="#fff"/>
    <path id="Path_754" data-name="Path 754" d="M445.353,508.4a3.479,3.479,0,0,0-2.49-4.717l-16.235-27.209-5.747,4.92,17.766,25.2a3.5,3.5,0,0,0,6.707,1.808Z" transform="translate(-333.7 -393.055)" fill="#a0616a"/>
    <path id="Path_755" data-name="Path 755" d="M422.545,467.789l-6.849,3.893a1.56,1.56,0,0,1-2.225-.792l-2.839-7.323a4.332,4.332,0,1,1,7.545-4.259L423,465.471a1.56,1.56,0,0,1-.458,2.317Z" transform="translate(-326.392 -379.955)" fill="#2f2e41"/>
    <path id="Path_756" data-name="Path 756" d="M394.708,519.614H263.235a2.1,2.1,0,0,0,0,4.21h3.724v45.821a2.1,2.1,0,0,0,4.21,0V527.868l23.6,42.77a2.1,2.1,0,1,0,3.646-2.1l-24.668-44.71H386.451v.027L361.8,568.534a2.1,2.1,0,0,0,3.646,2.1l21.007-38.075v37.081a2.1,2.1,0,0,0,4.21,0V524.933l.612-1.11h3.435a2.1,2.1,0,0,0,0-4.21Z" transform="translate(-225.682 -422.223)" fill="#747474"/>
    <rect id="Rectangle_266" data-name="Rectangle 266" width="27.849" height="2.267" rx="1.133" transform="translate(87.908 96.096)" fill="#ccc"/>
    <path id="Path_757" data-name="Path 757" d="M494.055,480.691h-28.82a2.107,2.107,0,0,1-2.1-2.1V462.719a2.107,2.107,0,0,1,2.1-2.1h28.82a2.107,2.107,0,0,1,2.1,2.1v15.867A2.107,2.107,0,0,1,494.055,480.691Z" transform="translate(-362.269 -382.329)" fill="#ccc"/>
    <circle id="Ellipse_129" data-name="Ellipse 129" cx="1.943" cy="1.943" r="1.943" transform="translate(115.433 86.381)" fill="#fff"/>
    <path id="Path_758" data-name="Path 758" d="M626.55,278.132V221.3a2.438,2.438,0,0,1,2.436-2.436h44.924a2.438,2.438,0,0,1,2.436,2.436v56.831a2.438,2.438,0,0,1-2.436,2.436H628.986A2.438,2.438,0,0,1,626.55,278.132Zm2.436-58.726a1.9,1.9,0,0,0-1.894,1.894v56.831a1.9,1.9,0,0,0,1.894,1.894h44.924a1.9,1.9,0,0,0,1.894-1.894V221.3a1.9,1.9,0,0,0-1.894-1.894Z" transform="translate(-472.769 -218.864)" fill="#747474"/>
    <path id="Path_759" data-name="Path 759" d="M711.215,272.552V260.883a1.219,1.219,0,0,1,1.218-1.218h9.889a1.219,1.219,0,0,1,1.218,1.218v11.669a1.219,1.219,0,0,1-1.218,1.218h-9.889A1.219,1.219,0,0,1,711.215,272.552Z" transform="translate(-530.017 -246.453)" fill="#6b709d"/>
    <path id="Path_760" data-name="Path 760" d="M651.88,289.266V277.6a1.219,1.219,0,0,1,1.218-1.218h9.889A1.219,1.219,0,0,1,664.2,277.6v11.669a1.219,1.219,0,0,1-1.218,1.218H653.1A1.219,1.219,0,0,1,651.88,289.266Z" transform="translate(-489.897 -257.754)" fill="#ff1762"/>
    <path id="Path_761" data-name="Path 761" d="M699.515,340.245V328.576a1.219,1.219,0,0,1,1.218-1.218h9.889a1.219,1.219,0,0,1,1.218,1.218v11.669a1.219,1.219,0,0,1-1.218,1.218h-9.889A1.219,1.219,0,0,1,699.515,340.245Z" transform="translate(-522.106 -292.225)" fill="#ff6584"/>
    <circle id="Ellipse_130" data-name="Ellipse 130" cx="2.094" cy="2.094" r="2.094" transform="translate(250.73 1.734)" fill="#747474"/>
    <circle id="Ellipse_131" data-name="Ellipse 131" cx="2.094" cy="2.094" r="2.094" transform="translate(250.73 10.08)" fill="#747474"/>
    <circle id="Ellipse_132" data-name="Ellipse 132" cx="2.094" cy="2.094" r="2.094" transform="translate(250.73 18.426)" fill="#747474"/>
    <circle id="Ellipse_133" data-name="Ellipse 133" cx="2.094" cy="2.094" r="2.094" transform="translate(250.73 26.772)" fill="#747474"/>
    <circle id="Ellipse_134" data-name="Ellipse 134" cx="2.094" cy="2.094" r="2.094" transform="translate(241.987 1.734)" fill="#747474"/>
    <circle id="Ellipse_135" data-name="Ellipse 135" cx="2.094" cy="2.094" r="2.094" transform="translate(241.987 10.08)" fill="#747474"/>
    <circle id="Ellipse_136" data-name="Ellipse 136" cx="2.094" cy="2.094" r="2.094" transform="translate(241.987 18.426)" fill="#747474"/>
    <circle id="Ellipse_137" data-name="Ellipse 137" cx="2.094" cy="2.094" r="2.094" transform="translate(241.987 26.772)" fill="#747474"/>
    <circle id="Ellipse_138" data-name="Ellipse 138" cx="2.094" cy="2.094" r="2.094" transform="translate(233.243 1.734)" fill="#747474"/>
    <circle id="Ellipse_139" data-name="Ellipse 139" cx="2.094" cy="2.094" r="2.094" transform="translate(233.243 10.08)" fill="#747474"/>
    <circle id="Ellipse_140" data-name="Ellipse 140" cx="2.094" cy="2.094" r="2.094" transform="translate(233.243 18.426)" fill="#747474"/>
    <circle id="Ellipse_141" data-name="Ellipse 141" cx="2.094" cy="2.094" r="2.094" transform="translate(233.243 26.772)" fill="#747474"/>
    <circle id="Ellipse_142" data-name="Ellipse 142" cx="2.094" cy="2.094" r="2.094" transform="translate(224.5 1.734)" fill="#747474"/>
    <circle id="Ellipse_143" data-name="Ellipse 143" cx="2.094" cy="2.094" r="2.094" transform="translate(224.5 10.08)" fill="#747474"/>
    <circle id="Ellipse_144" data-name="Ellipse 144" cx="2.094" cy="2.094" r="2.094" transform="translate(224.5 18.426)" fill="#747474"/>
    <circle id="Ellipse_145" data-name="Ellipse 145" cx="2.094" cy="2.094" r="2.094" transform="translate(224.5 26.772)" fill="#f2f2f2"/>
    <circle id="Ellipse_146" data-name="Ellipse 146" cx="2.094" cy="2.094" r="2.094" transform="translate(215.757 1.734)" fill="#747474"/>
    <circle id="Ellipse_147" data-name="Ellipse 147" cx="2.094" cy="2.094" r="2.094" transform="translate(215.757 10.08)" fill="#747474"/>
    <circle id="Ellipse_148" data-name="Ellipse 148" cx="2.094" cy="2.094" r="2.094" transform="translate(215.757 18.426)" fill="#747474"/>
    <circle id="Ellipse_149" data-name="Ellipse 149" cx="2.094" cy="2.094" r="2.094" transform="translate(215.757 26.772)" fill="#f2f2f2"/>
    <circle id="Ellipse_150" data-name="Ellipse 150" cx="2.094" cy="2.094" r="2.094" transform="translate(207.013 1.734)" fill="#747474"/>
    <circle id="Ellipse_151" data-name="Ellipse 151" cx="2.094" cy="2.094" r="2.094" transform="translate(207.013 10.08)" fill="#747474"/>
    <circle id="Ellipse_152" data-name="Ellipse 152" cx="2.094" cy="2.094" r="2.094" transform="translate(207.013 18.426)" fill="#747474"/>
    <circle id="Ellipse_153" data-name="Ellipse 153" cx="2.094" cy="2.094" r="2.094" transform="translate(207.013 26.772)" fill="#747474"/>
    <path id="Path_762" data-name="Path 762" d="M823.008,406.276a3.563,3.563,0,0,1,2.515-4.684,3.425,3.425,0,0,1,.47-.077l7.87-13.795-1.987-3.414,4.947-3.816,3.785,5.256a3.61,3.61,0,0,1-.084,4.31l-10.8,13.832a3.409,3.409,0,0,1,.1.335,3.563,3.563,0,0,1-3.031,4.368,3.46,3.46,0,0,1-.436.027A3.574,3.574,0,0,1,823.008,406.276Z" transform="translate(-605.463 -328.152)" fill="#ffb8b8"/>
    <path id="Path_763" data-name="Path 763" d="M612.147,418.912h-3.97L606.288,403.6h5.859Z" transform="translate(-409.956 -272.903)" fill="#ffb8b8"/>
    <path id="Path_764" data-name="Path 764" d="M593.3,447.384h7.657V452.2H588.476A4.821,4.821,0,0,1,593.3,447.384Z" transform="translate(-397.912 -302.509)" fill="#2f2e41"/>
    <path id="Path_765" data-name="Path 765" d="M713.147,418.912h-3.97L707.288,403.6h5.859Z" transform="translate(-478.25 -272.903)" fill="#ffb8b8"/>
    <path id="Path_766" data-name="Path 766" d="M694.3,447.384h7.657V452.2H689.476A4.821,4.821,0,0,1,694.3,447.384Z" transform="translate(-466.206 -302.509)" fill="#2f2e41"/>
    <path id="Path_767" data-name="Path 767" d="M845.915,367.133,837,370.52l-2.176-6.045a3.617,3.617,0,0,1,1.62-4.371h0a3.616,3.616,0,0,1,4.619.9Z" transform="translate(-613.455 -314.049)" fill="#de8601"/>
    <path id="Path_768" data-name="Path 768" d="M758.875,504.415l-7.475-1.7a1.615,1.615,0,0,1-1.234-1.82c3-19.012,5.885-30.145,13.322-44.284.1-.264,1.265-5.614,2.023-9.159a1.61,1.61,0,0,1,1.365-1.627l13.939-2.145a1.8,1.8,0,0,1,.655-.1l.139.026,0,.137c0,.142-.143.163-.2.172l-.185.029a2.164,2.164,0,0,1,.575.391c6.107,7.346,9.283,31.424,13.317,58.025a1.452,1.452,0,0,1-.422,1.181,1.6,1.6,0,0,1-1.146.518l-8.906.217a1.614,1.614,0,0,1-1.631-1.366l-6-34.666a1.287,1.287,0,0,0-2.427-.374c-4.839,9.856-9.352,18.379-13.8,35.383a1.6,1.6,0,0,1-1.552,1.207,1.626,1.626,0,0,1-.363-.041Z" transform="translate(-556.341 -370.808)" fill="#2f2e41"/>
    <path id="Path_769" data-name="Path 769" d="M797.048,390.768a1.619,1.619,0,0,1-.675-1.149c-1.142-10.657-.346-19,2.431-25.5a8.093,8.093,0,0,1,5.365-4.592l7.2-.364.037.018a8.421,8.421,0,0,1,4.6,8.934c-2.317,6.108-4.258,12.468-2.778,17.6a1.659,1.659,0,0,1-.157,1.29,1.582,1.582,0,0,1-1.009.748l-13.723,3.264A1.608,1.608,0,0,1,797.048,390.768Z" transform="translate(-587.259 -313.733)" fill="#6b709d"/>
    <path id="Path_770" data-name="Path 770" d="M751.234,372.289l-13.819-10.9a3.4,3.4,0,0,1-.336.1,3.571,3.571,0,0,1-2.855-.548,3.534,3.534,0,0,1-1.5-2.5,3.562,3.562,0,0,1,7.006-1.231,3.429,3.429,0,0,1,.074.47l13.757,7.936,3.423-1.971,3.792,4.965-5.315,3.789a3.543,3.543,0,0,1-4.229-.1Z" transform="translate(-544.546 -310.548)" fill="#ffb8b8"/>
    <path id="Path_771" data-name="Path 771" d="M808.147,377.569l-7.885-5.362,3.705-5.248a3.617,3.617,0,0,1,4.51-1.179h0a3.617,3.617,0,0,1,1.909,4.3Z" transform="translate(-590.229 -317.967)" fill="#de8601"/>
    <circle id="Ellipse_154" data-name="Ellipse 154" cx="7.953" cy="7.953" r="7.953" transform="translate(213.757 26.836)" fill="#ffb8b8"/>
    <path id="Path_772" data-name="Path 772" d="M809.987,302.145c-2.044,1.4-4.728,2.837-6.816,1.347a3.8,3.8,0,0,1-1.247-4.38c1-2.859,3.747-4.118,6.373-5.082,3.415-1.254,7.133-2.252,10.657-1.354s6.64,4.311,6,7.893c-.512,2.88-3.229,5.277-2.843,8.176.388,2.918,3.67,4.454,6.568,4.976s6.14.689,8.222,2.77c2.656,2.655,1.993,7.4-.507,10.2s-6.271,4.074-9.926,4.938c-4.843,1.144-10.08,1.746-14.68-.153s-8.178-7.012-6.846-11.807a16.473,16.473,0,0,1,3.17-5.4,15.056,15.056,0,0,0,3.067-5.453,5.669,5.669,0,0,0-1.024-4.959,1.437,1.437,0,0,1-.193-1.68Z" transform="translate(-591.193 -268.541)" fill="#2f2e41"/>
  </g>
</svg>
