<svg xmlns="http://www.w3.org/2000/svg" width="323.664" height="140.407" viewBox="0 0 323.664 140.407">
  <g id="undraw_hello_re_3evm_1_" data-name="undraw_hello_re_3evm (1)" transform="translate(0 0)">
    <path id="Path_644" data-name="Path 644" d="M602.879,412.839h-189.9a3.04,3.04,0,1,0,0,6.08h5.379v72.731a3.04,3.04,0,1,0,6.08,0l.046-72.731,166.463,1.268v71.463a3.04,3.04,0,1,0,6.08,0l.885-72.731h4.962a3.04,3.04,0,1,0,0-6.08Z" transform="translate(-310.924 -354.917)" fill="#747474"/>
    <path id="Path_645" data-name="Path 645" d="M439.894,371.842v12.874H407.639a6.441,6.441,0,0,1-.448-12.874q.224-.008.448,0Z" transform="translate(-304.919 -327.467)" fill="#f2f2f2"/>
    <path id="Path_646" data-name="Path 646" d="M439.282,384.024a.5.5,0,0,1-.5.5H405.661a6.784,6.784,0,0,1,0-13.568h33.127a.5.5,0,0,1,0,.99H405.661a5.793,5.793,0,0,0,0,11.587h33.127a.5.5,0,0,1,.5.5Z" transform="translate(-303.515 -326.874)" fill="#de8601"/>
    <path id="Path_647" data-name="Path 647" d="M448.318,380.439H413.657a.1.1,0,1,1,0-.2h34.664a.1.1,0,1,1,0,.2Z" transform="translate(-313.343 -333.093)" fill="#ccc"/>
    <path id="Path_648" data-name="Path 648" d="M448.318,387.631H413.657a.1.1,0,1,1,0-.2h34.664a.1.1,0,1,1,0,.2Z" transform="translate(-313.343 -337.908)" fill="#ccc"/>
    <path id="Path_649" data-name="Path 649" d="M448.318,394.822H413.657a.1.1,0,1,1,0-.2h34.664a.1.1,0,1,1,0,.2Z" transform="translate(-313.343 -342.722)" fill="#ccc"/>
    <path id="Path_650" data-name="Path 650" d="M448.318,402.014H413.657a.1.1,0,1,1,0-.2h34.664a.1.1,0,0,1,0,.2Z" transform="translate(-313.343 -347.537)" fill="#ccc"/>
    <path id="Path_651" data-name="Path 651" d="M421.5,330.8v12.874H389.241a6.441,6.441,0,1,1-.448-12.874q.224-.008.448,0Z" transform="translate(-292.602 -299.99)" fill="#f2f2f2"/>
    <path id="Path_652" data-name="Path 652" d="M420.885,342.982a.5.5,0,0,1-.5.5H387.263a6.784,6.784,0,0,1,0-13.568h33.127a.5.5,0,1,1,0,.99H387.263a5.793,5.793,0,1,0,0,11.587h33.127a.5.5,0,0,1,.5.5Z" transform="translate(-291.198 -299.396)" fill="#3f3d56"/>
    <path id="Path_653" data-name="Path 653" d="M429.92,339.4H395.259a.1.1,0,1,1,0-.2H429.92a.1.1,0,1,1,0,.2Z" transform="translate(-301.026 -305.616)" fill="#ccc"/>
    <path id="Path_654" data-name="Path 654" d="M429.92,346.59H395.259a.1.1,0,1,1,0-.2H429.92a.1.1,0,1,1,0,.2Z" transform="translate(-301.026 -310.431)" fill="#ccc"/>
    <path id="Path_655" data-name="Path 655" d="M429.92,353.781H395.259a.1.1,0,1,1,0-.2H429.92a.1.1,0,1,1,0,.2Z" transform="translate(-301.026 -315.245)" fill="#ccc"/>
    <path id="Path_656" data-name="Path 656" d="M429.92,360.973H395.259a.1.1,0,1,1,0-.2H429.92a.1.1,0,1,1,0,.2Z" transform="translate(-301.026 -320.06)" fill="#ccc"/>
    <path id="Path_657" data-name="Path 657" d="M520.072,524.153V512.928a1.871,1.871,0,0,0-1.871-1.871H475.638a1.871,1.871,0,0,0-1.871,1.871v11.225Z" transform="translate(-353.654 -420.675)" fill="#3f3d56"/>
    <rect id="Rectangle_223" data-name="Rectangle 223" width="46.305" height="14.499" transform="translate(120.113 107.689)" fill="#3f3d56"/>
    <path id="Path_658" data-name="Path 658" d="M473.768,620.029v11.225a1.871,1.871,0,0,0,1.871,1.871H518.2a1.871,1.871,0,0,0,1.871-1.871V620.029Z" transform="translate(-353.655 -493.632)" fill="#3f3d56"/>
    <circle id="Ellipse_96" data-name="Ellipse 96" cx="1.403" cy="1.403" r="1.403" transform="translate(141.628 95.995)" fill="#fff"/>
    <circle id="Ellipse_97" data-name="Ellipse 97" cx="1.403" cy="1.403" r="1.403" transform="translate(141.628 114.704)" fill="#fff"/>
    <circle id="Ellipse_98" data-name="Ellipse 98" cx="1.403" cy="1.403" r="1.403" transform="translate(141.703 133.017)" fill="#fff"/>
    <path id="Path_659" data-name="Path 659" d="M519.146,472.323V485.2H486.891a6.441,6.441,0,1,1-.448-12.874q.224-.008.448,0Z" transform="translate(-357.978 -394.739)" fill="#f2f2f2"/>
    <path id="Path_660" data-name="Path 660" d="M518.526,484.5a.5.5,0,0,1-.5.5H484.9a6.784,6.784,0,1,1-.008-13.568h33.135a.5.5,0,0,1,0,.99H484.9a5.793,5.793,0,1,0,0,11.587h33.127A.5.5,0,0,1,518.526,484.5Z" transform="translate(-356.566 -394.145)" fill="#3f3d56"/>
    <path id="Path_661" data-name="Path 661" d="M527.57,480.919H492.909a.1.1,0,0,1,0-.2H527.57a.1.1,0,1,1,0,.2Z" transform="translate(-366.403 -400.364)" fill="#ccc"/>
    <path id="Path_662" data-name="Path 662" d="M527.57,488.111H492.909a.1.1,0,0,1,0-.2H527.57a.1.1,0,1,1,0,.2Z" transform="translate(-366.403 -405.179)" fill="#ccc"/>
    <path id="Path_663" data-name="Path 663" d="M527.57,495.3H492.909a.1.1,0,0,1,0-.2H527.57a.1.1,0,1,1,0,.2Z" transform="translate(-366.403 -409.994)" fill="#ccc"/>
    <path id="Path_664" data-name="Path 664" d="M527.57,502.494H492.909a.1.1,0,0,1,0-.2H527.57a.1.1,0,1,1,0,.2Z" transform="translate(-366.403 -414.809)" fill="#ccc"/>
    <path id="Path_665" data-name="Path 665" d="M444.435,317.811h-14.7a.908.908,0,0,0-.4.094l-3.709,1.857a.676.676,0,0,0,0,1.244l3.709,1.857a.908.908,0,0,0,.4.094h14.7a.771.771,0,0,0,.814-.716v-3.714A.771.771,0,0,0,444.435,317.811Z" transform="translate(-321.15 -291.295)" fill="#3f3d56"/>
    <path id="Path_666" data-name="Path 666" d="M478.25,318.527v3.714a.771.771,0,0,1-.814.716h-2.928v-5.145h2.928A.771.771,0,0,1,478.25,318.527Z" transform="translate(-354.151 -291.295)" fill="#de8601"/>
    <path id="Path_667" data-name="Path 667" d="M214.285,475.634a11.68,11.68,0,0,0,11.278-1.987c3.95-3.316,5.189-8.778,6.2-13.836l2.981-14.96-6.241,4.3c-4.488,3.09-9.077,6.279-12.184,10.755s-4.464,10.586-1.967,15.429" transform="translate(-179.105 -376.35)" fill="#ff8000"/>
    <path id="Path_668" data-name="Path 668" d="M216.4,532.249c-.632-4.6-1.281-9.261-.838-13.911a21.878,21.878,0,0,1,4.218-11.471,19.082,19.082,0,0,1,4.9-4.436c.49-.309.94.467.453.775a18.14,18.14,0,0,0-7.176,8.658,29.077,29.077,0,0,0-1.544,12.526c.163,2.553.508,5.088.856,7.621a.465.465,0,0,1-.313.552A.451.451,0,0,1,216.4,532.249Z" transform="translate(-180.689 -414.852)" fill="#f2f2f2"/>
    <path id="Path_669" data-name="Path 669" d="M236.8,549.307a8.6,8.6,0,0,0,7.491,3.866c3.792-.18,6.954-2.827,9.8-5.339l8.418-7.432-5.571-.267c-4.006-.192-8.116-.371-11.932.865s-7.335,4.209-8.033,8.159" transform="translate(-195.005 -440.051)" fill="#ff1762"/>
    <path id="Path_670" data-name="Path 670" d="M212.874,572.677c3.04-5.379,6.566-11.358,12.867-13.268a14.358,14.358,0,0,1,5.412-.559c.575.05.431.935-.142.886a13.34,13.34,0,0,0-8.637,2.285,22.45,22.45,0,0,0-5.936,6.406c-.983,1.5-1.864,3.057-2.744,4.616-.281.5-1.1.139-.819-.365Z" transform="translate(-178.946 -452.635)" fill="#f2f2f2"/>
    <path id="Path_671" data-name="Path 671" d="M195.77,600.586a6.51,6.51,0,0,1,3.989-5.453v-3.11h5.216v3.208a6.507,6.507,0,0,1,3.772,5.355l1.226,14.257h-15.43Z" transform="translate(-166.714 -474.882)" fill="#6b709d"/>
    <path id="Path_672" data-name="Path 672" d="M695.441,394.874l-1.552-.653-1.064-7.778H678.65l-1.154,7.747-1.388.694a.33.33,0,0,0,.147.624h19.057a.33.33,0,0,0,.128-.633Z" transform="translate(-489 -337.245)" fill="#e6e6e6"/>
    <path id="Path_673" data-name="Path 673" d="M667.349,366.889h-69.63a1.379,1.379,0,0,1-1.376-1.379v-9.819h72.383v9.819A1.38,1.38,0,0,1,667.349,366.889Z" transform="translate(-435.719 -316.656)" fill="#ccc"/>
    <path id="Path_674" data-name="Path 674" d="M668.669,281.257H596.15V239.244a1.665,1.665,0,0,1,1.663-1.663h69.193a1.665,1.665,0,0,1,1.663,1.663Z" transform="translate(-435.59 -237.582)" fill="#3f3d56"/>
    <path id="Path_675" data-name="Path 675" d="M670.514,284.385H606.658a1.283,1.283,0,0,1-1.282-1.282V248.09a1.284,1.284,0,0,1,1.282-1.282h63.857a1.284,1.284,0,0,1,1.282,1.282V283.1A1.283,1.283,0,0,1,670.514,284.385Z" transform="translate(-441.767 -243.759)" fill="#fff"/>
    <path id="Path_676" data-name="Path 676" d="M749.029,395.823a3.839,3.839,0,0,1,5.839.751l8.637-1.536,2.213,5.021-12.228,2a3.86,3.86,0,0,1-4.461-6.234Z" transform="translate(-537.1 -342.843)" fill="#ffb6b6"/>
    <path id="Path_677" data-name="Path 677" d="M775.776,365.645l9-.112,1.14-.015,18.32-.231s4.975-4.746,9.307-9.633l-.607-4.392a17.944,17.944,0,0,0-6.016-11.109c-6.2,4.146-9.8,12.352-9.8,12.352l-11.359,2.717-1.136.272-7.058,1.687Z" transform="translate(-555.85 -306.253)" fill="#4c507b"/>
    <path id="Path_678" data-name="Path 678" d="M838.684,498.962H821.876c0,.72-18.374,1.3-18.374,1.3a6.711,6.711,0,0,0-1.1,1.044,6.477,6.477,0,0,0-1.514,4.175v1.044a6.526,6.526,0,0,0,6.524,6.523h31.273a6.529,6.529,0,0,0,6.524-6.524v-1.044a6.533,6.533,0,0,0-6.524-6.524Z" transform="translate(-572.662 -412.577)" fill="#e4e4e4"/>
    <rect id="Rectangle_224" data-name="Rectangle 224" width="6.785" height="39.161" transform="translate(247.014 100.217)" fill="#e4e4e4"/>
    <path id="Path_679" data-name="Path 679" d="M799.312,645.32c0,.733,10.281.284,22.963.284s22.963.45,22.963-.284-10.281-6.546-22.963-6.546S799.312,644.587,799.312,645.32Z" transform="translate(-571.608 -506.181)" fill="#e4e4e4"/>
    <path id="Path_680" data-name="Path 680" d="M660.091,368.007h-5.049l-2.4-19.476h7.452Z" transform="translate(-436.944 -233.343)" fill="#ffb6b6"/>
    <path id="Path_681" data-name="Path 681" d="M756.438,646.6H740.157v-.206a6.337,6.337,0,0,1,6.337-6.337h9.945Z" transform="translate(-532.003 -507.038)" fill="#2f2e41"/>
    <path id="Path_682" data-name="Path 682" d="M614.936,368.007h-5.049l-2.4-19.476h7.452Z" transform="translate(-406.713 -233.343)" fill="#ffb6b6"/>
    <path id="Path_683" data-name="Path 683" d="M711.283,646.6H695v-.206a6.337,6.337,0,0,1,6.337-6.337h9.945Z" transform="translate(-501.772 -507.038)" fill="#2f2e41"/>
    <circle id="Ellipse_99" data-name="Ellipse 99" cx="8.779" cy="8.779" r="8.779" transform="translate(244.675 4.981)" fill="#ffb6b6"/>
    <path id="Path_684" data-name="Path 684" d="M813.509,455.582s2.946,15.577-8.262,17.56-27.387,3.378-27.387,3.378l-7.266,33.9-9.761-.871s1.3-40.805,4.491-44,23.37-12.752,23.37-12.752Z" transform="translate(-545.846 -381.669)" fill="#2f2e41"/>
    <path id="Path_685" data-name="Path 685" d="M760.478,441.471l-4.9,4.918s-35.394,5.7-36.76,13.876c-2.061,12.342-4.5,39.181-4.5,39.181l10.642-.8,4.173-30.509,17.027-3.873,19.372-10.557Z" transform="translate(-514.705 -374.086)" fill="#2f2e41"/>
    <path id="Path_686" data-name="Path 686" d="M866.291,250.548c-.867-1.635-1.968-4.894-3.717-5.5a13.907,13.907,0,0,0-2.994-.638l-2.973,1.144,1.618-1.259q-.473-.028-.945-.046l-2.006.772,1.026-.8a8.2,8.2,0,0,0-5.25,1.314c-1.235.971-2.459,4.647-2.657,6.206a11.871,11.871,0,0,0,.218,4.472l.508.483a6.231,6.231,0,0,0,.4-1.269,6.009,6.009,0,0,1,2.876-3.9l.028-.016a5.391,5.391,0,0,1,2.863-.422l4.641.167a3.951,3.951,0,0,1,4.464,2.658,39.1,39.1,0,0,1,1.278,4.166s.478-.622.707-.159a16,16,0,0,0,.666-3.713A7.274,7.274,0,0,0,866.291,250.548Z" transform="translate(-604.389 -242.028)" fill="#2f2e41"/>
    <path id="Path_687" data-name="Path 687" d="M974.354,290.862a3.839,3.839,0,0,0-3.474,4.752l-7.06,5.208,2.118,5.062,9.867-7.494a3.86,3.86,0,0,0-1.45-7.527Z" transform="translate(-681.746 -273.247)" fill="#ffb6b6"/>
    <path id="Path_688" data-name="Path 688" d="M918.25,312.257l-17.7,19.656s-8.464-2.709-15.009-5.647l-2.941-9.032a17.96,17.96,0,0,1-.86-6.5c9.074-2.415,19.629,6.57,19.629,6.57l13.248-10.377Z" transform="translate(-626.779 -284.009)" fill="#4c507b"/>
    <path id="Path_689" data-name="Path 689" d="M846.85,364.734a47.919,47.919,0,0,0-9.944-2.642l-.151-.018.042-.146c3.646-12.8,2.736-20.989.949-33.289a12.424,12.424,0,0,1,7.122-13.055l.022-.01,10.058-.639h.023l7.315,2.151a5.018,5.018,0,0,1,3.592,4.9c-.079,4.045.089,8.561.267,13.342.4,10.727.812,21.818-1.53,29.015l-.012.038-.031.025a11.93,11.93,0,0,1-7.628,2.68C853.658,367.085,850.307,365.928,846.85,364.734Z" transform="translate(-596.675 -289.369)" fill="#6b709d"/>
    <path id="Path_690" data-name="Path 690" d="M433.534,660.523H110.8a.468.468,0,0,1,0-.935H433.533a.468.468,0,1,1,0,.935Z" transform="translate(-110.337 -520.116)" fill="#6b709d"/>
  </g>
</svg>
