<svg xmlns="http://www.w3.org/2000/svg" xmlns:xlink="http://www.w3.org/1999/xlink" width="36.267" height="36.292" viewBox="0 0 36.267 36.292">
  <defs>
    <linearGradient id="linear-gradient" x1="0.5" x2="0.5" y2="1" gradientUnits="objectBoundingBox">
      <stop offset="0" stop-color="#de8601"/>
      <stop offset="1" stop-color="#ff3d97"/>
    </linearGradient>
  </defs>
  <g id="_02.TARGET" data-name="02.TARGET" transform="translate(-2.996 -0.78)">
    <path id="Path_1071" data-name="Path 1071" d="M31.368,11.692a14.145,14.145,0,1,1-3.626-3.626L29.58,6.227a16.716,16.716,0,1,0,3.626,3.626Z" transform="translate(0 0.636)" fill="url(#linear-gradient)"/>
    <path id="Path_1072" data-name="Path 1072" d="M23.508,9.44A10.158,10.158,0,0,0,18.287,8,10.287,10.287,0,1,0,28.574,18.287a10.158,10.158,0,0,0-1.44-5.221l-1.89,1.89A7.587,7.587,0,0,1,26,18.287a7.715,7.715,0,1,1-7.715-7.715,7.587,7.587,0,0,1,3.33.759Z" transform="translate(1.43 2.064)" fill="url(#linear-gradient)"/>
    <circle id="Ellipse_191" data-name="Ellipse 191" cx="2.572" cy="2.572" r="2.572" transform="translate(17.146 17.779)" fill="url(#linear-gradient)"/>
    <path id="Path_1073" data-name="Path 1073" d="M32.019,3.918V.78L29.2,3.635l-.566,2.276a1.286,1.286,0,0,0-.746.347L17.9,16.249a1.286,1.286,0,1,0,1.813,1.813L29.73,8.045a1.286,1.286,0,0,0,.347-.746L32.3,6.734,35.131,3.9Z" transform="translate(4.132 0)" fill="url(#linear-gradient)"/>
  </g>
</svg>
