<svg xmlns="http://www.w3.org/2000/svg" width="20.414" height="17.352" viewBox="0 0 20.414 17.352">
  <g id="Icon_material-home" data-name="Icon material-home" transform="translate(-3 -4.5)" fill="none">
    <path d="M11.166,21.852V15.727h4.083v6.124h5.1V13.686h3.062L13.207,4.5,3,13.686H6.062v8.165Z" stroke="none"/>
    <path d="M 18.7518482208252 20.25158309936523 L 18.7518482208252 12.08613300323486 L 19.24435997009277 12.08613300323486 L 13.2069673538208 6.652564525604248 L 7.169575691223145 12.08613300323486 L 7.662087440490723 12.08613300323486 L 7.662087440490723 20.25158309936523 L 9.565577507019043 20.25158309936523 L 9.565577507019043 14.12749290466309 L 16.84835815429688 14.12749290466309 L 16.84835815429688 20.25158309936523 L 18.7518482208252 20.25158309936523 M 20.35184669494629 21.85158348083496 L 15.24835777282715 21.85158348083496 L 15.24835777282715 15.7274923324585 L 11.16557693481445 15.7274923324585 L 11.16557693481445 21.85158348083496 L 6.062087535858154 21.85158348083496 L 6.062087535858154 13.68613243103027 L 2.99999737739563 13.68613243103027 L 13.2069673538208 4.500002861022949 L 23.41393661499023 13.68613243103027 L 20.35184669494629 13.68613243103027 L 20.35184669494629 21.85158348083496 Z" stroke="none" fill="#fff"/>
  </g>
</svg>
