<svg xmlns="http://www.w3.org/2000/svg" width="19.11" height="16.846" viewBox="0 0 19.11 16.846">
  <g id="Group_497" data-name="Group 497" transform="translate(0.5 0.5)">
    <path id="Path_1003" data-name="Path 1003" d="M92.877,3.773A3.773,3.773,0,1,1,89.1,0,3.773,3.773,0,0,1,92.877,3.773Zm0,0" transform="translate(-82.313)" fill="#fcf9ee" stroke="#fcf9ee" stroke-width="1"/>
    <path id="Path_1004" data-name="Path 1004" d="M10,256H3.584A3.588,3.588,0,0,0,0,259.584v2.641a.566.566,0,0,0,.566.566h12.45a.566.566,0,0,0,.566-.566v-2.641A3.588,3.588,0,0,0,10,256Zm0,0" transform="translate(0 -246.945)" fill="#fcf9ee" stroke="#fcf9ee" stroke-width="1"/>
    <path id="Path_1005" data-name="Path 1005" d="M306.033,109.29l-2.641-2.452a.567.567,0,0,0-.952.415v1.7h-3.018a.754.754,0,1,0,0,1.509h3.018v1.7a.567.567,0,0,0,.952.415l2.641-2.452a.568.568,0,0,0,0-.83Zm0,0" transform="translate(-288.103 -102.914)" fill="#fcf9ee" stroke="#fcf9ee" stroke-width="1"/>
  </g>
</svg>
