<svg xmlns="http://www.w3.org/2000/svg" width="20.602" height="15.049" viewBox="0 0 20.602 15.049">
  <g id="Group_499" data-name="Group 499" transform="translate(-33.5 -673.977)">
    <path id="Icon_awesome-star" data-name="Icon awesome-star" d="M5.005.265,4.031,2.241l-2.18.318a.478.478,0,0,0-.264.815L3.164,4.911,2.791,7.082a.477.477,0,0,0,.692.5L5.434,6.56,7.384,7.585a.478.478,0,0,0,.692-.5L7.7,4.911,9.281,3.374a.478.478,0,0,0-.264-.815l-2.18-.318L5.862.265a.478.478,0,0,0-.857,0Z" transform="translate(44.168 675.477)" fill="none" stroke="#e5e5e5" stroke-width="1"/>
    <g id="Group_304" data-name="Group 304" transform="translate(26.561 698.477)">
      <path id="Icon_material-person" data-name="Icon material-person" d="M13.024,13.024A3.512,3.512,0,1,0,9.512,9.512,3.511,3.511,0,0,0,13.024,13.024Zm0,1.756C10.68,14.78,6,15.957,6,18.292v1.756H20.049V18.292C20.049,15.957,15.369,14.78,13.024,14.78Z" transform="translate(1.439 -30)" fill="none" stroke="#e5e5e5" stroke-width="1"/>
    </g>
  </g>
</svg>
