<svg xmlns="http://www.w3.org/2000/svg" xmlns:xlink="http://www.w3.org/1999/xlink" width="263.588" height="47.234" viewBox="0 0 263.588 47.234">
  <defs>
    <linearGradient id="linear-gradient" x1="0.064" y1="0.5" x2="0.941" y2="0.5" gradientUnits="objectBoundingBox">
      <stop offset="0" stop-color="#ffb811"/>
      <stop offset="1" stop-color="#ff1673"/>
    </linearGradient>
  </defs>
  <g id="logo_experience_plus" transform="translate(-995.669 -781.271)" opacity="0.8">
    <text id="xperience" transform="translate(1041.558 818.505)" fill="#ffa41d" font-size="38" font-family="Montserrat-Medium, Montserrat" font-weight="500"><tspan x="0" y="0">x</tspan><tspan y="0" fill="#ff8f29">pe</tspan><tspan y="0" fill="#ff723b">ri</tspan><tspan y="0" fill="#ff534d">e</tspan><tspan y="0" fill="#ff3560">nc</tspan><tspan y="0" fill="#ff1872">e</tspan></text>
    <text id="_" data-name="+" transform="translate(1236.257 818.505)" fill="#ffb811" font-size="38" font-family="Montserrat-Medium, Montserrat" font-weight="500"><tspan x="0" y="0">+</tspan></text>
    <path id="Union_2" data-name="Union 2" d="M18.517,44.726a3,3,0,0,1-1.029-.795,3.282,3.282,0,0,1-.63-1.186,3.784,3.784,0,0,1-.126-1.458,4.239,4.239,0,0,1,.427-1.461,4.362,4.362,0,0,1,.878-1.192,4.031,4.031,0,0,1,1.2-.8,3.49,3.49,0,0,1,1.393-.289,3.072,3.072,0,0,1,1.326.3,3.009,3.009,0,0,1,1.019.806,3.3,3.3,0,0,1,.615,1.187,3.791,3.791,0,0,1,.116,1.448,4.243,4.243,0,0,1-.427,1.446,4.363,4.363,0,0,1-.867,1.181,4.047,4.047,0,0,1-1.186.8,3.5,3.5,0,0,1-1.383.3h-.016A3.077,3.077,0,0,1,18.517,44.726ZM29.8,42.875a3.664,3.664,0,0,1-1.184-.815,3.709,3.709,0,0,1-.785-1.213,3.792,3.792,0,0,1-.265-1.489,3.9,3.9,0,0,1,.331-1.49,3.952,3.952,0,0,1,.84-1.217,3.9,3.9,0,0,1,1.223-.819,3.782,3.782,0,0,1,1.48-.3,3.659,3.659,0,0,1,2.643,1.125,3.713,3.713,0,0,1,.777,1.215,3.792,3.792,0,0,1,.259,1.485,3.9,3.9,0,0,1-.332,1.483,3.963,3.963,0,0,1-.836,1.211,3.91,3.91,0,0,1-1.216.818,3.781,3.781,0,0,1-1.474.3h-.008A3.681,3.681,0,0,1,29.8,42.875ZM10.882,43a2.561,2.561,0,0,1-1.146-.3,2.446,2.446,0,0,1-.866-.777,2.82,2.82,0,0,1-.441-1.092,3.476,3.476,0,0,1,.009-1.262,4.063,4.063,0,0,1,.484-1.291,4.208,4.208,0,0,1,.888-1.075,3.81,3.81,0,0,1,1.111-.672,3.129,3.129,0,0,1,1.2-.217,2.563,2.563,0,0,1,1.143.293,2.438,2.438,0,0,1,.868.771,2.81,2.81,0,0,1,.446,1.088,3.477,3.477,0,0,1,0,1.263,4.071,4.071,0,0,1-.481,1.3,4.218,4.218,0,0,1-.89,1.081,3.808,3.808,0,0,1-1.116.676A3.145,3.145,0,0,1,10.956,43ZM3.168,37.67c-1.069-.93-.994-2.767.168-4.1s2.97-1.667,4.04-.737.994,2.767-.168,4.1A3.488,3.488,0,0,1,4.648,38.2,2.22,2.22,0,0,1,3.168,37.67ZM.635,31.745c-.862-.75-.739-2.3.276-3.471s2.537-1.506,3.4-.756.739,2.3-.276,3.471a3.133,3.133,0,0,1-2.266,1.154A1.7,1.7,0,0,1,.635,31.745ZM.59,25.726a2.309,2.309,0,0,1,.138-3.22A2.309,2.309,0,0,1,3.9,21.921a2.309,2.309,0,0,1-.138,3.22,2.747,2.747,0,0,1-2.014,1A1.733,1.733,0,0,1,.59,25.726Zm15.018-.99c-.578-1.135.212-2.7,1.766-3.489s3.282-.513,3.861.623-.212,2.7-1.766,3.489a3.991,3.991,0,0,1-1.795.451A2.213,2.213,0,0,1,15.607,24.736Zm8.339-2.323c-.675-1.218.1-2.937,1.726-3.839s3.5-.647,4.171.571-.1,2.937-1.726,3.839a4.154,4.154,0,0,1-1.994.54A2.388,2.388,0,0,1,23.946,22.413ZM2.482,19.1c-.7-.61-.53-1.956.383-3.007s2.223-1.408,2.925-.8.53,1.956-.383,3.007a2.918,2.918,0,0,1-2.065,1.1A1.283,1.283,0,0,1,2.482,19.1ZM30.418,16.06c-.621-1.121.2-2.762,1.824-3.664s3.452-.725,4.074.4-.2,2.762-1.824,3.664a4.39,4.39,0,0,1-2.1.576A2.156,2.156,0,0,1,30.418,16.06ZM6.169,13.4c-.613-.533-.369-1.817.544-2.867S8.864,9.064,9.476,9.6s.369,1.816-.544,2.867a3.05,3.05,0,0,1-2.084,1.169A1.009,1.009,0,0,1,6.169,13.4ZM31.775,8.575c-.5-1.024.381-2.481,1.967-3.254s3.276-.571,3.776.453-.382,2.48-1.967,3.254a4.427,4.427,0,0,1-1.911.47A1.958,1.958,0,0,1,31.775,8.575Zm-20.73-.563c-.522-.622-.154-1.79.822-2.609s2.19-.979,2.712-.357.154,1.79-.822,2.609a2.906,2.906,0,0,1-1.782.736A1.173,1.173,0,0,1,11.046,8.013Zm5.448-3.464c-.356-.73.284-1.774,1.429-2.333s2.362-.42,2.718.31S20.356,4.3,19.211,4.858A3.226,3.226,0,0,1,17.82,5.2,1.392,1.392,0,0,1,16.493,4.548Zm12.369-.34c-.448-.918.3-2.2,1.677-2.874s2.85-.469,3.3.448-.3,2.2-1.677,2.875a3.745,3.745,0,0,1-1.62.4A1.765,1.765,0,0,1,28.862,4.208ZM23.044,2.979c-.408-.836.276-2.008,1.527-2.618s2.6-.427,3,.408S27.3,2.777,26.047,3.387a3.413,3.413,0,0,1-1.476.361A1.608,1.608,0,0,1,23.044,2.979Z" transform="translate(995.669 781.271)" fill="url(#linear-gradient)"/>
  </g>
</svg>
