<svg id="Icon_ionic-ios-person-add" data-name="Icon ionic-ios-person-add" xmlns="http://www.w3.org/2000/svg" width="21.279" height="21.263" viewBox="0 0 21.279 21.263">
  <path id="Path_1862" data-name="Path 1862" d="M22.291,22.33a25.8,25.8,0,0,0-2.885-.554,2.931,2.931,0,0,1-1.334-.615,10.126,10.126,0,0,1-.094-2.614.574.574,0,0,1,.061-.21,8.172,8.172,0,0,0,.57-1.107,12.569,12.569,0,0,0,.421-1.844.431.431,0,0,1,.221-.31,1.008,1.008,0,0,0,.432-.742,7.845,7.845,0,0,0,.41-1.855.783.783,0,0,0-.177-.526.418.418,0,0,1-.111-.41,11.676,11.676,0,0,0,.288-2.525C20.143,6.743,18.36,4.5,15.137,4.5c-3.273,0-5.011,2.243-4.961,4.518a12.178,12.178,0,0,0,.282,2.525.441.441,0,0,1-.111.41.755.755,0,0,0-.177.526,7.845,7.845,0,0,0,.41,1.855,1.021,1.021,0,0,0,.432.742.442.442,0,0,1,.221.31,12.569,12.569,0,0,0,.421,1.844,8.487,8.487,0,0,0,.57,1.107.39.39,0,0,1,.061.21,10.115,10.115,0,0,1-.094,2.614,2.931,2.931,0,0,1-1.334.615,25.8,25.8,0,0,0-2.885.554c-.786.277-3.062,1.135-3.461,2.9a.443.443,0,0,0,.437.537H25.32a.442.442,0,0,0,.432-.537C25.354,23.465,23.078,22.607,22.291,22.33Z" transform="translate(-4.501 -4.5)" fill="#191718"/>
  <path id="Path_1863" data-name="Path 1863" d="M27.989,18.942v1.135H25.331a.581.581,0,0,0-.581.581h0a.581.581,0,0,0,.581.581h2.658v1.19s2.089-1.773,2.093-1.771Z" transform="translate(-8.803 -7.368)" fill="#191718"/>
</svg>
