<svg xmlns="http://www.w3.org/2000/svg" width="136.346" height="136.346" viewBox="0 0 136.346 136.346">
  <path id="Icon_awesome-user-circle" data-name="Icon awesome-user-circle" d="M68.173.563a68.173,68.173,0,1,0,68.173,68.173A68.161,68.161,0,0,0,68.173.563Zm0,26.389a24.19,24.19,0,1,1-24.19,24.19A24.191,24.191,0,0,1,68.173,26.952Zm0,94.562A52.676,52.676,0,0,1,27.9,102.767,30.649,30.649,0,0,1,54.978,86.328a6.726,6.726,0,0,1,1.952.3,36.4,36.4,0,0,0,11.243,1.9,36.258,36.258,0,0,0,11.243-1.9,6.726,6.726,0,0,1,1.952-.3,30.649,30.649,0,0,1,27.077,16.438A52.676,52.676,0,0,1,68.173,121.514Z" transform="translate(0 -0.563)" fill="#515151"/>
</svg>
