<svg xmlns="http://www.w3.org/2000/svg" width="29.788" height="27.846" viewBox="0 0 29.788 27.846">
  <path id="Icon_ionic-ios-star" data-name="Icon ionic-ios-star" d="M28.407,12.114H19.479l-2.713-8.1a.983.983,0,0,0-1.845,0l-2.713,8.1H3.221a.974.974,0,0,0-.971.971.714.714,0,0,0,.018.164.933.933,0,0,0,.407.686l7.337,5.171L7.2,27.292a.974.974,0,0,0,.334,1.092.939.939,0,0,0,.546.237,1.19,1.19,0,0,0,.607-.218l7.161-5.1,7.161,5.1a1.137,1.137,0,0,0,.607.218.872.872,0,0,0,.54-.237.962.962,0,0,0,.334-1.092L21.67,19.105l7.277-5.219.176-.152a1.018,1.018,0,0,0,.316-.649A1.028,1.028,0,0,0,28.407,12.114Z" transform="translate(-0.95 -2.075)" fill="#191718" stroke="#ff3d97" stroke-width="2.6"/>
</svg>
