<svg xmlns="http://www.w3.org/2000/svg" width="35.224" height="32.708" viewBox="0 0 35.224 32.708">
  <path id="Icon_ionic-ios-star" data-name="Icon ionic-ios-star" d="M36.137,14.7H24.572L21.057,4.208a1.274,1.274,0,0,0-2.39,0L15.152,14.7H3.508A1.262,1.262,0,0,0,2.25,15.955a.925.925,0,0,0,.024.212,1.209,1.209,0,0,0,.527.888l9.506,6.7L8.658,34.361a1.262,1.262,0,0,0,.432,1.415,1.217,1.217,0,0,0,.708.307,1.541,1.541,0,0,0,.786-.283l9.278-6.612L29.14,35.8a1.473,1.473,0,0,0,.786.283,1.13,1.13,0,0,0,.7-.307,1.246,1.246,0,0,0,.432-1.415L27.41,23.755l9.427-6.762.228-.2a1.319,1.319,0,0,0,.409-.841A1.332,1.332,0,0,0,36.137,14.7Z" transform="translate(-2.25 -3.375)" fill="#e08308"/>
</svg>
