<svg id="Icon_ionic-ios-notifications-outline" data-name="Icon ionic-ios-notifications-outline" xmlns="http://www.w3.org/2000/svg" width="17.692" height="22.145" viewBox="0 0 17.692 22.145">
  <path id="Path_930" data-name="Path 930" d="M19.163,28.336a.717.717,0,0,0-.7.565,1.387,1.387,0,0,1-.277.6,1.046,1.046,0,0,1-.891.327A1.063,1.063,0,0,1,16.4,29.5a1.387,1.387,0,0,1-.277-.6.717.717,0,0,0-.7-.565h0a.722.722,0,0,0-.7.88,2.473,2.473,0,0,0,2.574,2.053,2.468,2.468,0,0,0,2.574-2.053.724.724,0,0,0-.7-.88Z" transform="translate(-8.462 -9.125)" fill="#e5e5e5"/>
  <path id="Path_931" data-name="Path 931" d="M24.245,20.33c-.852-1.124-2.529-1.782-2.529-6.813,0-5.164-2.28-7.24-4.406-7.738-.2-.05-.343-.116-.343-.327V5.292A1.357,1.357,0,0,0,15.639,3.93h-.033a1.357,1.357,0,0,0-1.328,1.362v.161c0,.2-.144.277-.343.327-2.131.5-4.406,2.574-4.406,7.738C9.528,18.548,7.851,19.2,7,20.33a1.1,1.1,0,0,0,.88,1.76h15.5A1.1,1.1,0,0,0,24.245,20.33Zm-2.159.321H9.18a.243.243,0,0,1-.183-.4A6.705,6.705,0,0,0,10.159,18.4a12.543,12.543,0,0,0,.791-4.882,8.488,8.488,0,0,1,1.157-4.8,3.551,3.551,0,0,1,2.142-1.528A1.94,1.94,0,0,0,15.279,6.6a.438.438,0,0,1,.659-.011,2.005,2.005,0,0,0,1.041.592A3.551,3.551,0,0,1,19.12,8.713a8.488,8.488,0,0,1,1.157,4.8,12.543,12.543,0,0,0,.791,4.882,6.782,6.782,0,0,0,1.19,1.876A.229.229,0,0,1,22.087,20.651Z" transform="translate(-6.775 -3.93)" fill="#e5e5e5"/>
</svg>
