<svg xmlns="http://www.w3.org/2000/svg" width="21.235" height="22.143" viewBox="0 0 21.235 22.143">
  <path id="Icon_simple-hubspot" data-name="Icon simple-hubspot" d="M16.29,6.965v-2.5A1.93,1.93,0,0,0,17.4,2.729V2.67A1.931,1.931,0,0,0,15.477.745h-.059a1.931,1.931,0,0,0-1.926,1.925v.059a1.928,1.928,0,0,0,1.1,1.732l.011.005v2.5A5.461,5.461,0,0,0,12,8.12l.011-.008L5.133,2.76A2.192,2.192,0,1,0,4.117,4.09L4.107,4.1l6.757,5.26a5.479,5.479,0,0,0,.1,6.192l-.011-.017L8.892,17.587a1.728,1.728,0,0,0-.509-.083h0a1.785,1.785,0,1,0,1.785,1.785,1.737,1.737,0,0,0-.087-.522l0,.012,2.034-2.034a5.485,5.485,0,1,0,4.2-9.775l-.032,0ZM15.443,15.2a2.815,2.815,0,1,1,2.822-2.815v0A2.815,2.815,0,0,1,15.45,15.2Z" transform="translate(-0.233 0.57)" fill="none" stroke="#e5e5e5" stroke-width="1"/>
</svg>
