<svg xmlns="http://www.w3.org/2000/svg" width="21.651" height="21.651" viewBox="0 0 21.651 21.651">
  <path id="Icon_feather-message-circle" data-name="Icon feather-message-circle" d="M24.551,13.968a9.335,9.335,0,0,1-1,4.233,9.468,9.468,0,0,1-8.466,5.235,9.335,9.335,0,0,1-4.233-1L4.5,24.551,6.616,18.2a9.335,9.335,0,0,1-1-4.233A9.468,9.468,0,0,1,10.849,5.5a9.335,9.335,0,0,1,4.233-1h.557a9.446,9.446,0,0,1,8.911,8.911Z" transform="translate(-3.7 -3.7)" fill="none" stroke="#fff" stroke-linecap="round" stroke-linejoin="round" stroke-width="1.6"/>
</svg>
