<svg xmlns="http://www.w3.org/2000/svg" width="14.028" height="13.098" viewBox="0 0 14.028 13.098">
  <path id="Icon_ionic-ios-star" data-name="Icon ionic-ios-star" d="M14.784,7.563H10.506l-1.3-3.879a.471.471,0,0,0-.884,0l-1.3,3.879H2.715a.467.467,0,0,0-.465.465.342.342,0,0,0,.009.079.447.447,0,0,0,.195.329l3.516,2.478L4.62,14.836a.467.467,0,0,0,.16.523.45.45,0,0,0,.262.113.57.57,0,0,0,.291-.1l3.432-2.446L12.2,15.368a.545.545,0,0,0,.291.1.418.418,0,0,0,.259-.113.461.461,0,0,0,.16-.523l-1.349-3.923,3.487-2.5.084-.073a.445.445,0,0,0-.343-.776Z" transform="translate(-1.75 -2.875)" fill="none" stroke="#e08308" stroke-width="1"/>
</svg>
