<svg xmlns="http://www.w3.org/2000/svg" width="14.668" height="13.62" viewBox="0 0 14.668 13.62">
  <path id="Icon_ionic-ios-star" data-name="Icon ionic-ios-star" d="M16.361,8.09H11.545L10.082,3.722a.53.53,0,0,0-1,0L7.623,8.09H2.774a.525.525,0,0,0-.524.524.385.385,0,0,0,.01.088.5.5,0,0,0,.219.37l3.958,2.79L4.918,16.278a.525.525,0,0,0,.18.589A.507.507,0,0,0,5.393,17a.642.642,0,0,0,.327-.118l3.863-2.753,3.863,2.753a.613.613,0,0,0,.327.118.47.47,0,0,0,.291-.128.519.519,0,0,0,.18-.589l-1.519-4.417,3.926-2.816.095-.082a.5.5,0,0,0-.386-.874Z" transform="translate(-2.25 -3.375)" fill="#e08308"/>
</svg>
