<svg id="in" xmlns="http://www.w3.org/2000/svg" width="22.338" height="20.379" viewBox="0 0 22.338 20.379">
  <path id="Path" d="M14.618,6.188v7.886H9.829V6.717c0-1.847-.691-3.109-2.425-3.109A2.61,2.61,0,0,0,4.948,5.279a3,3,0,0,0-.159,1.114v7.68H0S.064,1.613,0,.323H4.789V2.271c-.01.015-.023.03-.032.045h.032V2.271A4.794,4.794,0,0,1,9.105,0c3.151,0,5.513,1.965,5.513,6.188Z" transform="translate(7.72 6.305)" fill="#e5e5e5"/>
  <path id="Path-2" data-name="Path" d="M2.71,0A2.453,2.453,0,0,0,0,2.375,2.431,2.431,0,0,0,2.647,4.752h.031A2.451,2.451,0,0,0,5.387,2.375,2.441,2.441,0,0,0,2.71,0Z" fill="#e5e5e5"/>
  <path id="Path-3" data-name="Path" d="M0,13.751H4.787V0H0Z" transform="translate(0.285 6.628)" fill="#e5e5e5"/>
</svg>
