<svg xmlns="http://www.w3.org/2000/svg" xmlns:xlink="http://www.w3.org/1999/xlink" width="28" height="28" viewBox="0 0 28 28">
  <defs>
    <clipPath id="clip-path">
      <rect id="Rectangle_2952" data-name="Rectangle 2952" width="28" height="28" transform="translate(0.438 0.438)" fill="#e9e9e9"/>
    </clipPath>
  </defs>
  <g id="S_1" transform="translate(-0.438 -0.438)" clip-path="url(#clip-path)">
    <g id="Group_3266" data-name="Group 3266" transform="translate(2.412 0.719)">
      <path id="Subtraction_1" data-name="Subtraction 1" d="M12.013,32.652A12.026,12.026,0,1,1,16.777,9.58a20.935,20.935,0,0,0-.956,2.2,9.616,9.616,0,1,0,4.561,4.073,3.337,3.337,0,0,0,1.648-1.9A12.027,12.027,0,0,1,12.013,32.652Z" transform="translate(0.002 -5.998)" fill="#e9e9e9"/>
      <path id="Path_1896" data-name="Path 1896" d="M2.584,0S4.942,4.93,4.942,6.3A2.471,2.471,0,1,1,0,6.3C0,4.93,2.584,0,2.584,0Z" transform="translate(16.959 0) rotate(4.012)" fill="#e9e9e9"/>
      <rect id="Rectangle_2952-2" data-name="Rectangle 2952" width="4.729" height="1.971" transform="translate(6.111 12.657)" fill="#e9e9e9"/>
      <rect id="Rectangle_2953" data-name="Rectangle 2953" width="4.729" height="1.971" transform="translate(14.387 12.657)" fill="#e9e9e9"/>
    </g>
  </g>
</svg>
