<svg xmlns="http://www.w3.org/2000/svg" width="30" height="30" viewBox="0 0 30 30">
  <g id="Group_2401" data-name="Group 2401" transform="translate(-1487 -7149)">
    <path id="Path_2884" data-name="Path 2884" d="M15,0A15,15,0,1,1,0,15,15,15,0,0,1,15,0Z" transform="translate(1487 7149)" fill="rgba(37,37,37,0.47)"/>
    <path id="Icon_open-share-boxed" data-name="Icon open-share-boxed" d="M1.4,0A1.407,1.407,0,0,0,0,1.4V11.639a1.407,1.407,0,0,0,1.4,1.4H9.776a1.407,1.407,0,0,0,1.4-1.4V9.312H9.312v1.862H1.862V1.862H5.587V0Zm9.778,0V1.862A7.4,7.4,0,0,0,3.837,8.436,3.7,3.7,0,0,1,7.45,5.587h3.725V7.45L14.9,3.725Z" transform="translate(1495.75 7157.531)" fill="#fff"/>
  </g>
</svg>
