<svg xmlns="http://www.w3.org/2000/svg" width="28.259" height="19.137" viewBox="0 0 28.259 19.137">
  <path id="twitter" d="M28.259,2.265a13.417,13.417,0,0,1-3.33.76A5.116,5.116,0,0,0,27.478.353,13.1,13.1,0,0,1,23.8,1.525,6.384,6.384,0,0,0,19.564,0c-3.2,0-5.8,2.164-5.8,4.831a4.059,4.059,0,0,0,.151,1.1A17.739,17.739,0,0,1,1.967.884a4.216,4.216,0,0,0-.785,2.429A4.682,4.682,0,0,0,3.761,7.334a6.656,6.656,0,0,1-2.626-.6c0,.021,0,.041,0,.061,0,2.341,2,4.293,4.651,4.737a6.868,6.868,0,0,1-1.527.17,6.932,6.932,0,0,1-1.091-.086,5.774,5.774,0,0,0,5.416,3.355,13.18,13.18,0,0,1-7.2,2.068c-.467,0-.93-.023-1.382-.068a18.856,18.856,0,0,0,8.886,2.171c10.664,0,16.5-7.361,16.5-13.746,0-.209-.006-.418-.017-.625a10.889,10.889,0,0,0,2.893-2.5Z" fill="#e5e5e5"/>
</svg>
