<svg id="yammer" xmlns="http://www.w3.org/2000/svg" width="27.604" height="22.866" viewBox="0 0 27.604 22.866">
  <path id="Path" d="M14.6.176a1.854,1.854,0,0,0-2.424.791L12.154,1,8.164,11.242,3.375.9A1.847,1.847,0,0,0,.928.229,1.675,1.675,0,0,0,.182,2.479L6.3,16.04l-.887,2.277A1.8,1.8,0,0,1,3.72,19.436H2.39a1.717,1.717,0,1,0,0,3.431h.928A5.373,5.373,0,0,0,8.344,19.6L15.4,2.478a1.678,1.678,0,0,0-.8-2.3Z" transform="translate(0)" fill="#e5e5e5"/>
  <path id="Path-2" data-name="Path" d="M7.788,0A61.832,61.832,0,0,0,.429,1.738a.567.567,0,0,0-.4.709.593.593,0,0,0,.516.406c.246.024,6.033.571,7.247.571a1.756,1.756,0,0,0,1.8-1.712A1.756,1.756,0,0,0,7.788,0V0Z" transform="translate(18.019 9.049)" fill="#e5e5e5"/>
  <path id="Path-3" data-name="Path" d="M.6,5.747a.637.637,0,0,0,.129-.014c.211-.044,5.191-1.1,6.882-2.425a1.876,1.876,0,0,0,.81-1.718A1.68,1.68,0,0,0,7.969.537,1.946,1.946,0,0,0,5.494.363C4.53.956.639,4.357.2,4.742a.561.561,0,0,0-.041.816A.615.615,0,0,0,.6,5.747Z" transform="translate(15.591 2.201)" fill="#e5e5e5"/>
  <path id="Path-4" data-name="Path" d="M.737.015A.6.6,0,0,0,.071.309.556.556,0,0,0,.191,1c.441.388,4.337,3.805,5.3,4.393a2.307,2.307,0,0,0,1.2.356,1.725,1.725,0,0,0,1.273-.53A1.666,1.666,0,0,0,8.426,4.17a1.866,1.866,0,0,0-.81-1.708C5.922,1.15.948.06.737.015Z" transform="translate(15.591 13.695)" fill="#e5e5e5"/>
</svg>
