<svg id="youtube" xmlns="http://www.w3.org/2000/svg" width="23.846" height="27.723" viewBox="0 0 23.846 27.723">
  <path id="Shape" d="M3.5,15.335A3.5,3.5,0,0,1,0,11.906V3.515A3.5,3.5,0,0,1,3.5.086q8.419-.173,16.838,0a3.5,3.5,0,0,1,3.5,3.428v8.392a3.5,3.5,0,0,1-3.5,3.429q-4.209.086-8.419.086T3.5,15.335Z" transform="translate(0 12.301)" fill="#e5e5e5"/>
  <path id="Path" d="M4.143,0V7.591H2.673l0-.815c-.162.153-.3.3-.453.425a2.016,2.016,0,0,1-.934.465A.939.939,0,0,1,.1,7.057,1.927,1.927,0,0,1,0,6.49V0H1.458V5.789a1.254,1.254,0,0,0,.02.229.331.331,0,0,0,.468.271,1.561,1.561,0,0,0,.7-.519.241.241,0,0,0,.022-.141V0Z" transform="translate(14.46 2.685)" fill="#e5e5e5"/>
  <path id="Path-2" data-name="Path" d="M2.659,4c-.319-1.287-.987-4-.987-4H0S1.285,4.078,1.859,5.9a.7.7,0,0,1,.03.206v4.171H3.43V6.1A.7.7,0,0,1,3.46,5.9C4.034,4.078,5.319,0,5.319,0H3.647S2.978,2.717,2.66,4Z" transform="translate(3.792)" fill="#e5e5e5"/>
  <path id="Shape-2" data-name="Shape" d="M0,5.955V2.014A2.061,2.061,0,0,1,2.1,0a2.061,2.061,0,0,1,2.1,2.014V5.955A2.061,2.061,0,0,1,2.1,7.97,2.061,2.061,0,0,1,0,5.955Z" transform="translate(9.019 2.495)" fill="#e5e5e5"/>
</svg>
